<?xml version="1.0" encoding="utf-8"?>
<!DOCTYPE svg PUBLIC "-//W3C//DTD SVG 1.1//EN" "http://www.w3.org/Graphics/SVG/1.1/DTD/svg11.dtd">
<svg version="1.1" id="Layer_1" xmlns="http://www.w3.org/2000/svg" xmlns:xlink="http://www.w3.org/1999/xlink" x="0px" y="0px"
	 viewBox="0 0 1920 1703" enable-background="new 0 0 1920 1703" xml:space="preserve">
<g>
	<g id="_x23_c9dfddff">
		<path fill="#C9DFDD" stroke="#C9DFDD" stroke-width="0.0938" d="M0,0h1920v281.78c-102.71-1.68-205.53-0.15-308,7.34
			c-122.34,8.8-244.28,25.75-363.59,54.51c-20.77,4.7-41.04,11.26-61.53,16.97c-12.39,3.23-24.95,6.74-37.85,6.72
			c-10.36-0.59-20.2001-4.3-29.9401-7.59c-18.9399-6.85-37.5399-14.58-56.51-21.34c-58.3799-21.64-116.6799-43.63-176.2-62
			c-83.13-25.59-168.7-44-255.43-51.52c-50.86-4.29-101.97-5.23-152.97-3.43c-82.79,2.88-165.27,12.34-246.89,26.33
			C160.79,259.84,91.06,275.14,22,292.94c-7.27,1.74-14.65,2.88-22,4.2V0 M1122.0699,136.98c-11.0199,3.03-20.59,9.53-31.0499,13.92
			c-4.04,1.74-8.37,2.56-12.53,3.9c3.1,5.29,9.86,6.38,15.48,6.31c10.28-0.4,20.8201-3.39,30.9401-0.08
			c11.8199,3.29,20.87,13.19,25.02,24.5c-4.4901,1.25-10.52,2.19-12.0601,7.37c6.02,0.6,12.27,0.1,18.02,2.37
			c10.99,3.48,20.03,11.31,31.12,14.48c14.98,3.4,30.45-2.85,45.38,1.45c-1.9401-6.01-8.9-8.64-10.42-14.94
			c6.4401-4.15,12.62-8.76,18.0701-14.16c3.84-3.8,6.9299-8.44,11.5299-11.41c2.17-1.52,4.9-1.5,7.4401-1.72
			c14.52-0.8,29.24-2.12,43.08-6.89c6.4601-2.44,12.9301-5.3,18.2201-9.83c-7.4801,0.06-15.04,0.56-22.4-1.04
			c-12.4301-2.42-22.52-11.26-34.98-13.57c-9.17-1.63-18.4901,1.86-25.5,7.71c-12.89,10.81-24.66,22.92-37.88,33.34
			c-6.5901-1.56-13.3401-2.09-20.02-3.04c-4.9601-13.61-12.88-27-25.4501-34.8C1144.65,134.84,1132.67,134.1,1122.0699,136.98z"/>
	</g>
	<g id="_x23_ffffffff">
		<path fill="#FFFFFF" stroke="#FFFFFF" stroke-width="0.0938" d="M1122.0699,136.98c10.6001-2.88,22.5801-2.14,32.01,3.87
			c12.5701,7.8,20.49,21.19,25.4501,34.8c6.6799,0.95,13.4299,1.48,20.02,3.04c13.22-10.42,24.99-22.53,37.88-33.34
			c7.0099-5.85,16.33-9.34,25.5-7.71c12.46,2.31,22.5499,11.15,34.98,13.57c7.36,1.6,14.9199,1.1,22.4,1.04
			c-5.29,4.53-11.76,7.39-18.2201,9.83c-13.84,4.77-28.5599,6.09-43.08,6.89c-2.54,0.22-5.27,0.2-7.4401,1.72
			c-4.6,2.97-7.6899,7.61-11.5299,11.41c-5.4501,5.4-11.63,10.01-18.0701,14.16c1.52,6.3,8.48,8.93,10.42,14.94
			c-14.9301-4.3-30.4,1.95-45.38-1.45c-11.09-3.17-20.13-11-31.12-14.48c-5.75-2.27-12-1.77-18.02-2.37
			c1.54-5.18,7.5699-6.12,12.0601-7.37c-4.15-11.31-13.2001-21.21-25.02-24.5c-10.12-3.31-20.66-0.32-30.9401,0.08
			c-5.62,0.07-12.38-1.02-15.48-6.31c4.16-1.34,8.49-2.16,12.53-3.9C1101.48,146.51,1111.05,140.01,1122.0699,136.98z"/>
		<path fill="#FFFFFF" stroke="#FFFFFF" stroke-width="0.0938" d="M321.92,575.26c4.66-0.86,9.39-3.32,14.19-1.82
			c14.93,3.68,29.89,7.23,44.83,10.86c-4.65,0.64-9.34,0.58-14.02,0.48c-25.3,0.03-50.61-0.04-75.91,0.04
			c-2.26-0.04-4.51-0.29-6.75-0.46C296.81,581.31,309.36,578.28,321.92,575.26z"/>
		<path fill="#FFFFFF" stroke="#FFFFFF" stroke-width="0.0938" d="M891.31,584.39c15.24-3.67,30.49-7.33,45.72-11.07
			c3.33-1,6.7,0.24,9.9399,1.02c13.69,3.3799,27.42,6.61,41.1201,9.95c-6.02,0.89-12.11,0.39-18.16,0.4901
			c-19.65,0.0099-39.29,0-58.93,0C904.43,584.71,897.85,585.09,891.31,584.39z"/>
		<path fill="#FFFFFF" stroke="#FFFFFF" stroke-width="0.0938" d="M1550.92,574.86c4.08-0.95,8.2899-2.62,12.5299-1.46
			c15.13,3.72,30.28,7.37,45.4301,11.02c-10.92,0.79-21.89,0.17-32.83,0.36c-21.6101-0.1801-43.2201,0.37-64.8101-0.29
			C1524.46,581.29,1537.7,578.11,1550.92,574.86z"/>
		<path fill="#FFFFFF" stroke="#FFFFFF" stroke-width="0.0938" d="M177.4,610.19c19.71-4.78,39.41-9.64,59.17-14.23
			c3.14,0.12,6.29,0.32,9.44,0.31c56,0,112,0.01,168,0c4.29,0.13,8.58,0.03,12.83-0.67c20.37,4.47,40.59,9.66,60.88,14.54
			c-14.54,0.73-29.12,0.16-43.68,0.35c-82.01-0.01-164.02,0-246.04-0.01C191.14,610.4,184.26,610.63,177.4,610.19z"/>
		<path fill="#FFFFFF" stroke="#FFFFFF" stroke-width="0.0938" d="M784.43,610.23c20.37-4.81,40.62-10.15,61.1-14.5
			c12.77,1.15,25.6299,0.26,38.4399,0.54c38.34,0,76.6801,0,115.03,0c11.82-0.25,23.67,0.56,35.46-0.52
			c20.23,4.36,40.27,9.56,60.39,14.39c-10.61,0.73-21.26,0.17-31.88,0.35c-60.67-0.01-121.33-0.01-181.99,0
			C848.8,610.33,816.6,610.81,784.43,610.23z"/>
		<path fill="#FFFFFF" stroke="#FFFFFF" stroke-width="0.0938" d="M1405.17,610.18c19.48-4.77,38.95-9.65,58.5199-14.07
			c41.7401,0.37,83.4801,0.06,125.2201,0.16c22.49-0.14,45,0.29,67.49-0.22c19.7899,4.42,39.45,9.43,59.1699,14.2
			c-24.1899,0.54-48.4099,0.08-72.6,0.24c-57-0.01-113.99-0.01-170.98,0C1449.72,610.29,1427.4301,610.87,1405.17,610.18z"/>
		<path fill="#FFFFFF" stroke="#FFFFFF" stroke-width="0.0938" d="M105.52,627.54c8.63-2.0099,17.18-4.37,25.88-6.08
			c3.85,0.39,7.73,0.72,11.62,0.62c121.3,0.02,242.61,0.02,363.92,0c9.17-0.44,18.36,0.56,27.5-0.54
			c8.13,1.63,16.12,3.86,24.22,5.64c1.1801,4.59,0.86,9.35,0.78,14.05c-151.28,0.03-302.57,0.04-453.85-0.01
			C105.59,636.66,105.6,632.1,105.52,627.54z"/>
		<path fill="#FFFFFF" stroke="#FFFFFF" stroke-width="0.0938" d="M712.75,627.55c8.59-1.98,17.09-4.42,25.78-5.97
			c4.49,0.5,9.0099,0.53,13.52,0.35c61.98,0.34,123.97,0.08,185.95,0.16c57.67,0,115.34,0.0099,173.02-0.01
			c10.12-0.12,20.26,0.36,30.37-0.51c8.58,1.61,17,3.94,25.5,5.95c-0.03,4.59-0.02,9.17-0.03,13.76
			c-151.36-0.09-302.73,0.0099-454.1-0.05C712.76,636.67,712.76,632.11,712.75,627.55z"/>
		<path fill="#FFFFFF" stroke="#FFFFFF" stroke-width="0.0938" d="M1333.1801,627.54c7.5199-1.81,15.0199-3.75,22.58-5.45
			c112.74,0.0099,225.49,0,338.23,0c23.11-0.13,46.24,0.28,69.35-0.2401c8.04,1.6801,15.99,3.75,23.98,5.64
			c-0.0399,4.59-0.0399,9.19-0.0299,13.78c-151.17-0.06-302.3301,0.01-453.5-0.03c-0.24,4.35-0.28,8.7-0.13,13.06
			c151.22,0.06,302.4299,0.02,453.64,0.01c-0.01,6.69-0.01,13.38,0,20.08c-44.3101,0.02-88.63,0.19-132.9301-0.09
			c-51.12-0.34-102.25-0.05-153.37-0.15c-12.91,0.0699-25.8101-0.14-38.71,0.12c-43.03,0.37-86.0701,0.1-129.11,0.13
			C1333.16,658.77,1333.42,643.16,1333.1801,627.54z"/>
		<path fill="#FFFFFF" stroke="#FFFFFF" stroke-width="0.0938" d="M105.58,654.33c101.47-0.01,202.94,0,304.41,0
			c49.86,0.1,99.74-0.22,149.6,0.16c-0.2401,6.63-0.16,13.27-0.16,19.9c-44.24-0.01-88.48,0.21-132.72-0.11
			c-64.01-0.17-128.03-0.13-192.04-0.02c-43.03,0.39-86.06,0.09-129.08,0.15C105.58,667.71,105.59,661.02,105.58,654.33z"/>
		<path fill="#FFFFFF" stroke="#FFFFFF" stroke-width="0.0938" d="M712.76,654.34c151.37-0.03,302.73,0,454.1-0.02
			c0.02,6.7,0.02,13.4,0,20.1c-44.3099-0.08-88.63,0.22-132.9299-0.15c-53.65-0.26-107.3-0.04-160.9401-0.11
			c-10.39,0.06-20.78-0.15-31.16,0.13c-43.02,0.31-86.05,0.1-129.07,0.1C712.76,667.7,712.76,661.02,712.76,654.34z"/>
		<path fill="#FFFFFF" stroke="#FFFFFF" stroke-width="0.0938" d="M105.58,687.4c43.03,0.2,86.06-0.06,129.09,0.13
			c0,6.71,0,13.42-0.01,20.14c-43.02-0.1-86.05-0.14-129.07,0.02C105.59,700.92,105.56,694.16,105.58,687.4z"/>
		<path fill="#FFFFFF" stroke="#FFFFFF" stroke-width="0.0938" d="M426.7,687.4c44.34,0.11,88.67,0.13,133.01-0.01
			c-0.05,17.81-0.07,35.62,0.0099,53.42c-44.34-0.05-88.68,0.01-133.02-0.02c0-6.71-0.01-13.41,0-20.1
			c44.25-0.18,88.5,0.18,132.75-0.18c-0.01-4.3-0.03-8.6-0.07-12.89c-44.23-0.04-88.45-0.02-132.68-0.01
			C426.69,700.87,426.7,694.14,426.7,687.4z"/>
		<path fill="#FFFFFF" stroke="#FFFFFF" stroke-width="0.0938" d="M712.76,687.45c43.03,0.07,86.07-0.05,129.1,0.07
			c0.01,6.7,0.01,13.41-0.03,20.13c-43.02-0.1-86.05-0.04-129.07-0.03C712.76,700.89,712.76,694.17,712.76,687.45z"/>
		<path fill="#FFFFFF" stroke="#FFFFFF" stroke-width="0.0938" d="M1033.96,687.39c44.3101,0.23,88.61-0.08,132.92,0.16
			c-0.01,6.7,0,13.41-0.01,20.12c-44.33-0.12-88.66-0.09-132.99-0.02C1033.87,700.9,1033.86,694.14,1033.96,687.39z"/>
		<path fill="#FFFFFF" stroke="#FFFFFF" stroke-width="0.0938" d="M1333.1801,687.52c43.0299-0.15,86.0699,0.05,129.11-0.1
			c-0.05,6.74-0.03,13.49,0,20.23c-43.03-0.06-86.0701-0.12-129.1001,0.03C1333.15,700.96,1333.15,694.24,1333.1801,687.52z"/>
		<path fill="#FFFFFF" stroke="#FFFFFF" stroke-width="0.0938" d="M1654.3101,687.52c44.33-0.15,88.6599,0.05,132.99-0.1
			c-0.02,6.74,0,13.47,0,20.21c-44.3301-0.03-88.66-0.1-132.9801,0.03C1654.3101,700.95,1654.3199,694.24,1654.3101,687.52z"/>
		<path fill="#FFFFFF" stroke="#FFFFFF" stroke-width="0.0938" d="M105.58,720.6c43.03,0.12,86.06,0.02,129.09,0.05
			c0,6.71,0,13.43-0.01,20.15c-43.02,0-86.05-0.04-129.07,0.02C105.58,734.08,105.58,727.34,105.58,720.6z"/>
		<path fill="#FFFFFF" stroke="#FFFFFF" stroke-width="0.0938" d="M712.76,720.66c43.03-0.04,86.06,0.06,129.09-0.06
			c-0.0099,6.7401,0.04,13.48-0.0099,20.21c-43.03-0.04-86.06-0.02-129.09,0C712.76,734.09,712.76,727.37,712.76,720.66z"/>
		<path fill="#FFFFFF" stroke="#FFFFFF" stroke-width="0.0938" d="M1033.89,720.68c44.3199-0.08,88.65,0.03,132.97-0.06
			c0.01,6.74,0.02,13.48,0.01,20.23c-44.3-0.11-88.59-0.0699-132.89-0.02C1033.84,734.11,1033.88,727.4,1033.89,720.68z"/>
		<path fill="#FFFFFF" stroke="#FFFFFF" stroke-width="0.0938" d="M1333.5,720.66c42.9301-0.02,85.86-0.0099,128.79,0
			c-0.02,6.71-0.04,13.4301-0.01,20.15c-42.88,0-85.76-0.07-128.64,0.03c-0.1,4.3-0.0601,8.61,0.1,12.92
			c42.85,0.07,85.7-0.01,128.55,0.05c-0.05,6.67-0.04,13.35,0,20.03c-42.88,0.11-85.76-0.09-128.64,0.09
			c-0.0701,4.36-0.0601,8.72,0.02,13.08c42.87,0.26,85.74-0.08,128.61,0.17c-0.04,6.66,0,13.32,0.01,19.98
			c-43.04,0.03-86.0701-0.05-129.1001,0.04c-0.22-12.39,0.42-24.79,0-37.18c-0.23-9.92,0.39-19.84,0.0701-29.75
			C1333.37,733.73,1333.48,727.2,1333.5,720.66z"/>
		<path fill="#FFFFFF" stroke="#FFFFFF" stroke-width="0.0938" d="M1654.3199,720.63c44.3301,0.05,88.66,0.02,132.9801,0.02
			c0.01,6.71-0.02,13.42,0.01,20.14c-44.3301,0.03-88.65-0.05-132.9701,0.04C1654.3101,734.09,1654.33,727.36,1654.3199,720.63z"/>
		<path fill="#FFFFFF" stroke="#FFFFFF" stroke-width="0.0938" d="M105.58,753.76c43.03,0.06,86.05,0.03,129.07,0.01
			c0.02,6.7,0.02,13.41,0.01,20.12c-43.03-0.02-86.05-0.08-129.07,0.03C105.58,767.2,105.58,760.47,105.58,753.76z"/>
		<path fill="#FFFFFF" stroke="#FFFFFF" stroke-width="0.0938" d="M426.7,753.8c44.26,0.01,88.52-0.07,132.78,0.03
			c-0.13,6.47-0.12,12.94,0.18,19.41c0.03,22.36-0.05,44.73,0.07,67.1c-44.35-0.03-88.69,0.09-133.03-0.06c0-6.6801,0-13.36,0-20.04
			c44.23,0.09,88.46,0.07,132.69,0.01c0.05-4.35,0.03-8.71-0.04-13.05c-44.22-0.07-88.44-0.02-132.66-0.03
			c0.01-6.68,0.01-13.36,0.01-20.03c44.24-0.11,88.48,0,132.72-0.05c0.02-4.41,0.01-8.8-0.03-13.2
			c-44.23-0.08-88.46,0.02-132.69-0.04C426.7,767.16,426.7,760.48,426.7,753.8z"/>
		<path fill="#FFFFFF" stroke="#FFFFFF" stroke-width="0.0938" d="M712.75,753.85c43.03-0.14,86.06-0.03,129.09-0.06
			c0.04,6.69,0.0099,13.39,0,20.08c-43.03-0.05-86.06,0.07-129.09-0.06C712.76,767.15,712.77,760.5,712.75,753.85z"/>
		<path fill="#FFFFFF" stroke="#FFFFFF" stroke-width="0.0938" d="M1033.87,753.8c44.33-0.05,88.66,0.05,132.99-0.05
			c0.03,6.69,0.01,13.39,0,20.09c-44.33,0.03-88.66,0.06-132.99-0.01C1033.89,767.15,1033.9,760.47,1033.87,753.8z"/>
		<path fill="#FFFFFF" stroke="#FFFFFF" stroke-width="0.0938" d="M1654.33,753.77c44.3301,0.04,88.65,0,132.9801,0.02
			c-0.01,6.68-0.03,13.37,0,20.06c-44.3301,0.04-88.65,0-132.9801,0.02C1654.3101,767.17,1654.3101,760.47,1654.33,753.77z"/>
		<path fill="#FFFFFF" stroke="#FFFFFF" stroke-width="0.0938" d="M105.58,787.14c43.03-0.12,86.06,0.02,129.08-0.07
			c0.01,6.7-0.01,13.41,0,20.12c-43.02-0.04-86.05-0.05-129.07,0C105.58,800.51,105.58,793.82,105.58,787.14z"/>
		<path fill="#FFFFFF" stroke="#FFFFFF" stroke-width="0.0938" d="M712.75,787.12c43.03-0.11,86.06,0.11,129.09-0.11
			c0.05,6.72,0.02,13.45,0,20.18c-43.03-0.06-86.06,0-129.08-0.03C712.77,800.47,712.76,793.79,712.75,787.12z"/>
		<path fill="#FFFFFF" stroke="#FFFFFF" stroke-width="0.0938" d="M1033.97,786.92c44.29,0.43,88.6,0.03,132.9,0.2
			c0.01,6.69,0,13.39-0.01,20.09c-44.33-0.1-88.65-0.01-132.97-0.05C1033.88,800.41,1033.86,793.66,1033.97,786.92z"/>
		<path fill="#FFFFFF" stroke="#FFFFFF" stroke-width="0.0938" d="M1654.34,787.07c44.3201-0.03,88.64,0.19,132.9601-0.11
			c-0.01,6.74-0.01,13.48,0,20.22c-44.3201-0.03-88.65-0.01-132.9701-0.01C1654.33,800.47,1654.3101,793.77,1654.34,787.07z"/>
		<path fill="#FFFFFF" stroke="#FFFFFF" stroke-width="0.0938" d="M105.59,820.28c43.02-0.03,86.05,0.12,129.07-0.07
			c0.01,6.72,0.01,13.44,0,20.16c-43.03-0.1-86.05,0.08-129.08-0.09C105.58,833.61,105.58,826.94,105.59,820.28z"/>
		<path fill="#FFFFFF" stroke="#FFFFFF" stroke-width="0.0938" d="M712.76,820.28c43.02-0.02,86.05,0.09,129.07-0.05
			c0.04,6.68,0.04,13.37,0.04,20.06c-43.04,0.07-86.08,0.12-129.11-0.02C712.76,833.6,712.76,826.94,712.76,820.28z"/>
		<path fill="#FFFFFF" stroke="#FFFFFF" stroke-width="0.0938" d="M1033.88,820.35c44.33-0.2,88.66,0.1,132.99-0.15
			c0.01,6.69,0,13.39,0,20.09c-44.33,0.05-88.67,0.18-132.99-0.07C1033.88,833.6,1033.89,826.97,1033.88,820.35z"/>
		<path fill="#FFFFFF" stroke="#FFFFFF" stroke-width="0.0938" d="M1333.1899,820.2c43.03,0.21,86.0701,0.04,129.1001,0.09
			c-0.03,6.66-0.04,13.32,0,19.98c-43.04,0.13-86.0701,0.11-129.11,0.01C1333.15,833.59,1333.16,826.89,1333.1899,820.2z"/>
		<path fill="#FFFFFF" stroke="#FFFFFF" stroke-width="0.0938" d="M1654.3199,820.25c44.3201,0.05,88.65,0.1,132.9801-0.02
			c-0.02,6.67,0.01,13.35,0.01,20.03c-44.3301,0.16-88.66,0.08-132.9901,0.05C1654.3199,833.62,1654.3101,826.93,1654.3199,820.25z"
			/>
		<path fill="#FFFFFF" stroke="#FFFFFF" stroke-width="0.0938" d="M105.58,853.36c43.03-0.05,86.05,0.06,129.08-0.06
			c0.01,6.77,0.01,13.54,0,20.32c-43.02-0.15-86.05-0.1-129.07-0.03C105.58,866.85,105.58,860.1,105.58,853.36z"/>
		<path fill="#FFFFFF" stroke="#FFFFFF" stroke-width="0.0938" d="M426.7,853.38c44.29,0.03,88.6-0.19,132.89,0.1
			c-0.2401,6.66-0.23,13.32-0.06,19.98c-44.27,0.22-88.55-0.03-132.83,0.13C426.69,866.85,426.7,860.11,426.7,853.38z"/>
		<path fill="#FFFFFF" stroke="#FFFFFF" stroke-width="0.0938" d="M712.75,853.33c43.03,0.04,86.06,0.03,129.09,0.01
			c0.03,6.75,0.03,13.5-0.01,20.25c-43.02-0.1-86.05-0.06-129.07-0.02C712.77,866.82,712.76,860.08,712.75,853.33z"/>
		<path fill="#FFFFFF" stroke="#FFFFFF" stroke-width="0.0938" d="M1033.87,853.41c44.33-0.17,88.66,0.04,132.98-0.1
			c0.03,6.73,0.03,13.46,0.02,20.19c-44.33,0.1-88.66,0-132.98,0.05C1033.88,866.84,1033.88,860.12,1033.87,853.41z"/>
		<path fill="#FFFFFF" stroke="#FFFFFF" stroke-width="0.0938" d="M1333.1899,853.3c43.03,0.14,86.0601-0.02,129.1001,0.08
			c-0.04,6.72-0.04,13.45,0,20.18c-43.04,0-86.0701-0.1-129.11,0.05C1333.15,866.84,1333.16,860.07,1333.1899,853.3z"/>
		<path fill="#FFFFFF" stroke="#FFFFFF" stroke-width="0.0938" d="M1654.3101,853.34c44.33,0.02,88.6599,0.02,132.99,0
			c-0.01,6.7599-0.02,13.52,0,20.28c-44.3301-0.23-88.66,0.08-132.99-0.16C1654.3199,866.75,1654.3199,860.04,1654.3101,853.34z"/>
		<path fill="#FFFFFF" stroke="#FFFFFF" stroke-width="0.0938" d="M105.59,886.47c43.02,0.19,86.05,0.1,129.07,0.05
			c0.01,6.74,0.01,13.48,0,20.23c-43.03-0.08-86.05-0.04-129.08-0.02C105.58,899.97,105.58,893.22,105.59,886.47z"/>
		<path fill="#FFFFFF" stroke="#FFFFFF" stroke-width="0.0938" d="M1033.89,886.52c44.3199,0.04,88.65,0.16,132.97-0.06
			c0.02,6.77,0.02,13.54,0,20.31c-44.3199-0.17-88.65,0.03-132.97-0.1C1033.88,899.95,1033.88,893.24,1033.89,886.52z"/>
		<path fill="#FFFFFF" stroke="#FFFFFF" stroke-width="0.0938" d="M1333.1801,886.51c43.0299,0.1,86.0699,0.1,129.1,0
			c-0.02,6.72-0.03,13.44,0.01,20.17c-42.87,0.08-85.74-0.02-128.61,0.05c-0.0801,4.33-0.0701,8.66,0.0099,13
			c42.8601,0.11,85.7301-0.05,128.6001,0.08c-0.04,6.65-0.03,13.32,0,19.98c-42.88,0.1-85.75-0.07-128.62,0.09
			c-0.0601,4.33-0.0601,8.68,0.0199,13.02c42.8601-0.04,85.7301,0.02,128.5901-0.03c0,6.75-0.04,13.51-0.01,20.27
			c-42.86-0.03-85.72-0.01-128.59-0.01c-0.1001,4.34-0.1101,8.69-0.01,13.05c42.87,0.08,85.75,0.12,128.62-0.03
			c-0.05,6.72-0.03,13.43,0,20.15c-43.03-0.12-86.0701,0.01-129.1001-0.06c-0.1799-13.74,0.39-27.48-0.0299-41.21
			c0.24-13.01,0.12-26.01,0-39.01C1333.62,912.85,1332.97,899.68,1333.1801,886.51z"/>
		<path fill="#FFFFFF" stroke="#FFFFFF" stroke-width="0.0938" d="M426.69,886.63c44.26-0.13,88.52-0.07,132.78-0.04
			c-0.11,6.55-0.08,13.09,0.1801,19.6299c0.06,33.34-0.04,66.6801,0.0699,100.01c-44.34,0.07-88.68-0.02-133.02,0.04
			c-0.01-6.69,0.01-13.38,0-20.07c44.23,0.04,88.46,0.09,132.7-0.02c0.04-4.35,0.03-8.7-0.02-13.04
			c-44.23-0.01-88.45-0.04-132.68,0.02c0-6.77-0.01-13.52,0-20.28c44.22,0.01,88.44,0.04,132.66-0.01c0.02-4.33,0.05-8.66,0.1-12.98
			c-44.26-0.16-88.51-0.05-132.76-0.05c0-6.69,0-13.3701,0-20.05c44.17-0.03,88.35-0.06,132.53,0.01c0.25-4.35,0.26-8.7,0.09-13.05
			c-44.21-0.09-88.41-0.03-132.62-0.03C426.7,900.02,426.7,893.32,426.69,886.63z"/>
		<path fill="#FFFFFF" stroke="#FFFFFF" stroke-width="0.0938" d="M712.76,886.59c43.03-0.05,86.06-0.01,129.09-0.02
			c0.01,6.71,0.02,13.43,0,20.15c-43.04-0.02-86.0699-0.0099-129.1,0C712.76,900.01,712.76,893.3,712.76,886.59z"/>
		<path fill="#FFFFFF" stroke="#FFFFFF" stroke-width="0.0938" d="M1654.3199,886.59c44.3201,0.0099,88.65-0.11,132.9801,0.06
			c-0.01,6.7-0.01,13.4,0,20.11c-44.3301-0.13-88.66,0-132.99-0.07C1654.3199,899.99,1654.3199,893.28,1654.3199,886.59z"/>
		<path fill="#FFFFFF" stroke="#FFFFFF" stroke-width="0.0938" d="M105.58,919.78c43.02-0.05,86.05,0.03,129.08-0.04
			c0.01,6.7,0.01,13.4,0,20.11c-43.02-0.06-86.05-0.04-129.07-0.0099C105.59,933.15,105.56,926.46,105.58,919.78z"/>
		<path fill="#FFFFFF" stroke="#FFFFFF" stroke-width="0.0938" d="M712.76,919.8c43.03-0.08,86.06-0.03,129.1-0.02
			c0,6.7,0.01,13.39-0.03,20.09c-43.02-0.14-86.05,0.01-129.07-0.07C712.76,933.13,712.76,926.47,712.76,919.8z"/>
		<path fill="#FFFFFF" stroke="#FFFFFF" stroke-width="0.0938" d="M1033.88,919.81c44.3199-0.11,88.65-0.02,132.98-0.04
			c0.02,6.68,0.02,13.36,0.01,20.05c-44.33-0.02-88.66,0.04-132.99-0.03C1033.89,933.13,1033.88,926.47,1033.88,919.81z"/>
		<path fill="#FFFFFF" stroke="#FFFFFF" stroke-width="0.0938" d="M1654.3199,919.78c44.3301-0.03,88.65-0.02,132.9801-0.01
			c-0.02,6.69-0.01,13.37,0,20.06c-44.3201,0.03-88.65-0.12-132.9801,0.08C1654.3101,933.2,1654.3101,926.49,1654.3199,919.78z"/>
		<path fill="#FFFFFF" stroke="#FFFFFF" stroke-width="0.0938" d="M105.58,952.84c43.03,0.0699,86.05,0.11,129.07-0.02
			c0,6.74,0.03,13.49,0.01,20.24c-43.02,0.19-86.05-0.04-129.07,0.11C105.58,966.39,105.57,959.61,105.58,952.84z"/>
		<path fill="#FFFFFF" stroke="#FFFFFF" stroke-width="0.0938" d="M712.76,952.9c43.02-0.04,86.05,0.03,129.07-0.03
			c0.02,6.74,0.06,13.49,0.01,20.25c-43.03,0-86.06,0.04-129.09-0.02C712.76,966.36,712.75,959.63,712.76,952.9z"/>
		<path fill="#FFFFFF" stroke="#FFFFFF" stroke-width="0.0938" d="M1033.89,952.92c44.3199-0.11,88.64,0.07,132.97-0.09
			c0.02,6.77,0.02,13.53,0,20.3c-44.29,0-88.59-0.02-132.88,0.01C1033.85,966.4,1033.9,959.66,1033.89,952.92z"/>
		<path fill="#FFFFFF" stroke="#FFFFFF" stroke-width="0.0938" d="M1654.34,973.14c-0.0299-6.77-0.01-13.54-0.01-20.3
			c44.3201,0.1,88.65,0.06,132.9801,0.02c-0.01,6.76-0.03,13.52-0.01,20.28C1742.98,973.12,1698.66,973.12,1654.34,973.14z"/>
		<path fill="#FFFFFF" stroke="#FFFFFF" stroke-width="0.0938" d="M105.58,986.14c43.03,0.22,86.05,0.03,129.08,0.1
			c0.01,6.68,0.01,13.37-0.01,20.06c-43.02-0.06-86.04-0.1-129.06,0.02C105.58,999.59,105.58,992.86,105.58,986.14z"/>
		<path fill="#FFFFFF" stroke="#FFFFFF" stroke-width="0.0938" d="M712.76,986.21c43.03,0.03,86.06,0.07,129.08-0.02
			c0.02,6.7,0.03,13.4,0,20.11c-43.03-0.09-86.06-0.04-129.08-0.02C712.76,999.59,712.76,992.9,712.76,986.21z"/>
		<path fill="#FFFFFF" stroke="#FFFFFF" stroke-width="0.0938" d="M1033.87,986.17c44.33,0.12,88.66,0.09,132.99,0.02
			c0,6.7,0.04,13.4,0.01,20.11c-44.33-0.09-88.67-0.03-133-0.04C1033.89,999.56,1033.89,992.86,1033.87,986.17z"/>
		<path fill="#FFFFFF" stroke="#FFFFFF" stroke-width="0.0938" d="M1654.33,986.17c44.3201,0.13,88.65,0.06,132.9801,0.04
			c-0.02,6.68-0.02,13.36,0,20.04c-44.3301,0.05-88.66-0.07-132.9901,0.06C1654.3199,999.59,1654.3101,992.88,1654.33,986.17z"/>
		<path fill="#FFFFFF" stroke="#FFFFFF" stroke-width="0.0938" d="M105.59,1019.32c43.02,0.14,86.05,0.12,129.07,0.01
			c0.01,6.71,0,13.41,0,20.1199c-43.03-0.0199-86.05,0-129.08-0.01C105.56,1032.73,105.59,1026.02,105.59,1019.32z"/>
		<path fill="#FFFFFF" stroke="#FFFFFF" stroke-width="0.0938" d="M426.7,1019.34c44.28,0.18,88.56-0.07,132.84,0.1299
			c-0.17,6.65-0.11,13.3-0.07,19.9501c-44.2599,0.0499-88.52-0.01-132.78,0.0299C426.7,1032.74,426.7,1026.04,426.7,1019.34z"/>
		<path fill="#FFFFFF" stroke="#FFFFFF" stroke-width="0.0938" d="M712.76,1019.36c43.03,0.05,86.06,0.09,129.09-0.02
			c0.04,6.7-0.02,13.39,0,20.0999c-43.03-0.0199-86.06,0.04-129.09-0.0399C712.77,1032.72,712.76,1026.04,712.76,1019.36z"/>
		<path fill="#FFFFFF" stroke="#FFFFFF" stroke-width="0.0938" d="M1033.95,1019.34c44.3,0.08,88.6101,0.15,132.91-0.04
			c0.03,6.72,0.01,13.43,0,20.16c-44.3199-0.0699-88.65,0.05-132.97-0.0699C1033.88,1032.7,1033.85,1026.02,1033.95,1019.34z"/>
		<path fill="#FFFFFF" stroke="#FFFFFF" stroke-width="0.0938" d="M1333.1899,1019.36c43.03,0.09,86.0701,0.04,129.1001,0.02
			c-0.04,6.6801-0.02,13.35,0,20.04c-43.04,0.0499-86.0801,0.0199-129.11,0.01C1333.17,1032.74,1333.15,1026.05,1333.1899,1019.36z"
			/>
		<path fill="#FFFFFF" stroke="#FFFFFF" stroke-width="0.0938" d="M1654.34,1019.35c44.3201,0.08,88.64,0.1,132.9601-0.0099
			c-0.02,6.69,0.01,13.3799,0.01,20.08c-44.3301,0.11-88.66-0.12-132.9801,0.12C1654.3199,1032.8,1654.3101,1026.08,1654.34,1019.35
			z"/>
		<path fill="#FFFFFF" stroke="#FFFFFF" stroke-width="0.0938" d="M105.59,1052.42c43.02,0.08,86.05,0.0699,129.07,0.01
			c0.01,6.7599,0.01,13.5199,0,20.2799c-43.03-0.14-86.05-0.02-129.08-0.0499C105.56,1065.91,105.59,1059.16,105.59,1052.42z"/>
		<path fill="#FFFFFF" stroke="#FFFFFF" stroke-width="0.0938" d="M426.7,1052.47c19.07,0.13,38.15-0.25,57.22,0.1901
			c-1.58,1.72-2.69,4.11-1.86,6.48c1.45,4.9299,4.87,8.95,7.33,13.41c-20.9,0.26-41.8,0.01-62.7,0.12
			C426.7,1065.9399,426.7,1059.2,426.7,1052.47z"/>
		<path fill="#FFFFFF" stroke="#FFFFFF" stroke-width="0.0938" d="M712.76,1052.42c43.02,0.08,86.05,0.1,129.07-0.01
			c0.04,6.71,0.03,13.4199,0.04,20.14c-43.04,0.24-86.08,0.0399-129.11,0.1C712.76,1065.9,712.76,1059.16,712.76,1052.42z"/>
		<path fill="#FFFFFF" stroke="#FFFFFF" stroke-width="0.0938" d="M1033.88,1052.47c44.33-0.03,88.66,0.0701,132.99-0.0499
			c0.01,6.7,0,13.4199,0,20.13c-44.3099,0.23-88.62,0.0599-132.9301,0.09C1033.86,1065.91,1033.88,1059.1899,1033.88,1052.47z"/>
		<path fill="#FFFFFF" stroke="#FFFFFF" stroke-width="0.0938" d="M1333.1899,1052.42c43.03,0.1,86.0601,0.0499,129.1001,0.0199
			c-0.03,6.7401-0.04,13.4701,0,20.2101c-43.04-0.0801-86.0801,0.1799-129.11-0.13
			C1333.15,1065.8199,1333.16,1059.12,1333.1899,1052.42z"/>
		<path fill="#FFFFFF" stroke="#FFFFFF" stroke-width="0.0938" d="M1654.3199,1052.41c44.3201,0.12,88.65,0.0499,132.9801,0.0399
			c-0.02,6.7301,0.01,13.4701,0.01,20.2101c-44.3301,0-88.66-0.04-132.9901,0.02
			C1654.3199,1065.92,1654.3101,1059.17,1654.3199,1052.41z"/>
		<path fill="#FFFFFF" stroke="#FFFFFF" stroke-width="0.0938" d="M105.58,1085.65c43.03-0.01,86.06-0.01,129.08-0.01
			c0.01,6.7,0.01,13.4,0.01,20.1c-43.03-0.05-86.06,0.05-129.09-0.05C105.58,1099,105.58,1092.3199,105.58,1085.65z"/>
		<path fill="#FFFFFF" stroke="#FFFFFF" stroke-width="0.0938" d="M426.7,1085.66c23.92-0.12,47.85,0.15,71.77-0.13
			c1.91,2.7899,3.74,5.6699,5.25,8.71c1.8,3.58,2.2,7.63,3.42,11.42c-26.81,0.15-53.63,0.0399-80.44,0.0499
			C426.69,1099.02,426.7,1092.34,426.7,1085.66z"/>
		<path fill="#FFFFFF" stroke="#FFFFFF" stroke-width="0.0938" d="M712.76,1085.72c43.03-0.1699,86.07-0.0399,129.1-0.0699
			c-0.01,6.7,0.02,13.41-0.03,20.12c-43.03-0.0801-86.05-0.0701-129.07,0C712.76,1099.08,712.76,1092.4,712.76,1085.72z"/>
		<path fill="#FFFFFF" stroke="#FFFFFF" stroke-width="0.0938" d="M1033.88,1085.71c44.3199-0.14,88.65-0.0499,132.98-0.0499
			c-0.09,17.74-0.13,35.46,0.02,53.2c-44.33,0.03-88.66,0.01-132.99,0.01c-0.01-6.67,0-13.33-0.01-19.98
			c44.14-0.05,88.28,0.03,132.42-0.04c0.09-4.37,0.1-8.73,0.0299-13.08c-44.1499-0.15-88.2999,0.09-132.4399-0.12
			C1033.88,1099,1033.89,1092.35,1033.88,1085.71z"/>
		<path fill="#FFFFFF" stroke="#FFFFFF" stroke-width="0.0938" d="M1333.1801,1085.6801c43.0299-0.0601,86.0699-0.0601,129.11,0
			c-0.04,6.6599-0.04,13.33,0,20c-42.87,0.1499-85.75-0.0701-128.62,0.11c-0.0801,4.35-0.0701,8.7,0.0499,13.0599
			c42.86,0.05,85.7101,0.02,128.5701,0.02c-0.04,6.66-0.03,13.3199,0,19.98c-42.87,0.09-85.74-0.08-128.6001,0.09
			c-0.09,4.3701-0.1299,8.75-0.12,13.13c30.16,0.1801,60.3301,0.02,90.4901,0.0801c12.7699-0.1901,25.5699,0.39,38.33-0.34
			c0.37-0.02,1.12-0.0701,1.49-0.0901c30.6801,0.3101,61.37,0.02,92.0599,0.13c15.4401,0.3,30.9401-0.75,46.3401,0.6801
			c-49.87,7.4-99.5801,18.95-150.3,17.62c-39.61-2.1-79.1799-4.8101-118.7999-6.5801c0.1899-13.1899,0.0599-26.37-0.01-39.5599
			C1333.65,1111.23,1332.95,1098.46,1333.1801,1085.6801z"/>
		<path fill="#FFFFFF" stroke="#FFFFFF" stroke-width="0.0938" d="M1654.3199,1085.65c44.3301,0.02,88.65-0.0801,132.9801,0.0499
			c-0.01,6.6801-0.01,13.3601,0,20.05c-44.3301-0.03-88.66-0.04-132.9801,0C1654.3199,1099.05,1654.3199,1092.35,1654.3199,1085.65z
			"/>
		<path fill="#FFFFFF" stroke="#FFFFFF" stroke-width="0.0938" d="M105.59,1118.85c43.03,0.13,86.05-0.12,129.08,0.12
			c-0.01,6.64,0,13.27-0.01,19.92c-43.02,0.13-86.05-0.3-129.06,0.2C105.57,1132.34,105.59,1125.59,105.59,1118.85z"/>
		<path fill="#FFFFFF" stroke="#FFFFFF" stroke-width="0.0938" d="M426.7,1118.8199c28.07,0.14,56.14,0.01,84.2,0.05
			c1.97,6.63,3.92,13.27,5.71,19.96c-29.97,0.26-59.94-0.2999-89.9,0.29C426.69,1132.35,426.69,1125.58,426.7,1118.8199z"/>
		<path fill="#FFFFFF" stroke="#FFFFFF" stroke-width="0.0938" d="M712.77,1118.86c43.03,0.03,86.06,0.01,129.09,0.01
			c-0.01,6.71,0.02,13.42-0.02,20.13c-25.25-0.29-50.51-0.05-75.76-0.13c-13.11,0.09-26.23-0.22-39.33,0.23
			c-3.34-0.74-6.74-1.08-10.1-1.66c-1.52-1.3999-2.63-3.1599-3.85-4.7799C712.75,1128.0601,712.75,1123.46,712.77,1118.86z"/>
		<path fill="#FFFFFF" stroke="#FFFFFF" stroke-width="0.0938" d="M1654.3199,1118.83c44.3301,0.0701,88.65,0.0901,132.9801-0.01
			c-0.01,6.6801-0.01,13.3501,0,20.03c-44.3301,0.0601-88.66-0.02-133,0.05C1654.3101,1132.21,1654.3199,1125.52,1654.3199,1118.83z
			"/>
		<path fill="#FFFFFF" stroke="#FFFFFF" stroke-width="0.0938" d="M409.52,1152.27c9.15-0.61,18.32-0.05,27.48-0.11
			c27.98-0.01,55.96-0.05,83.95,0.01c1.81,5.14,3.76,10.24,5.83,15.2999C487.51,1163.99,448.38,1158.87,409.52,1152.27z"/>
		<path fill="#FFFFFF" stroke="#FFFFFF" stroke-width="0.0938" d="M727.85,1152.13c53.71,0.15,107.41-0.11,161.11-0.1901
			c10.64,0.17,21.3-0.3899,31.93,0.38c-10.94,2.78-22.17,4.2201-33.28,6.17c-48.29,7.96-97.11,12.12-145.94,14.85
			c-4.63-6.49-9.5-12.8099-14.19-19.25C727.57,1153.6,727.76,1152.62,727.85,1152.13z"/>
		<path fill="#FFFFFF" stroke="#FFFFFF" stroke-width="0.0938" d="M1080.49,1152.3199c28.79-0.4299,57.58-0.0499,86.38-0.1799
			c0,2.36-0.01,4.73-0.01,7.11C1137.95,1158.99,1109.12,1156.1801,1080.49,1152.3199z"/>
		<path fill="#FFFFFF" stroke="#FFFFFF" stroke-width="0.0938" d="M716.63,1169.41c1.26,1.47,2.53,2.9399,3.78,4.45
			c-2.3199-0.0699-4.64-0.11-6.95-0.16C714.49,1172.24,715.55,1170.8199,716.63,1169.41z"/>
	</g>
	<g id="_x23_6a7c66ff">
		<path fill="#6A7C66" stroke="#6A7C66" stroke-width="0.0938" d="M231.09,247.77c81.62-13.99,164.1-23.45,246.89-26.33
			c51-1.8,102.11-0.86,152.97,3.43c86.73,7.52,172.3,25.93,255.43,51.52c59.52,18.37,117.82,40.36,176.2,62
			c18.9701,6.76,37.5701,14.49,56.51,21.34c9.74,3.29,19.5801,7,29.9401,7.59c12.9,0.02,25.46-3.49,37.85-6.72
			c20.49-5.71,40.76-12.27,61.53-16.97c119.3099-28.76,241.25-45.71,363.59-54.51c102.47-7.49,205.29-9.02,308-7.34V1159.22
			c-44.1801,4.72-88.6801,0.99-132.71-3.53c-0.01-1.1899-0.01-2.37,0.02-3.5299c0-4.4401-0.01-8.88-0.01-13.3101
			c-0.01-6.6799-0.01-13.35,0-20.03c-0.01-4.36-0.01-8.72,0-13.0699c-0.01-6.6899-0.01-13.37,0-20.05c0-4.35,0-8.7,0.01-13.0399
			c0-6.74-0.03-13.48-0.01-20.2101c-0.01-4.35,0-8.6899,0.01-13.0299c0-6.7001-0.03-13.39-0.01-20.08
			c-0.01-4.3701,0-8.73,0.01-13.09c-0.02-6.68-0.02-13.36,0-20.04c-0.01-4.36-0.02-8.72-0.01-13.07c-0.02-6.76,0-13.52,0.01-20.28
			c-0.01-4.35-0.01-8.69-0.01-13.03c-0.01-6.69-0.02-13.37,0-20.06c0-4.34,0-8.68,0-13.01c-0.01-6.71-0.01-13.41,0-20.11
			c0-4.35,0.01-8.7,0-13.03c-0.02-6.76-0.01-13.52,0-20.28c-0.01-4.36-0.01-8.72,0.01-13.08c0-6.68-0.03-13.36-0.01-20.03
			c-0.01-4.36,0-8.7,0-13.05c-0.01-6.74-0.01-13.48,0-20.22c0-4.37,0-8.7401,0.01-13.11c-0.03-6.69-0.01-13.38,0-20.06
			c-0.01-4.34-0.01-8.67,0-13c-0.03-6.72,0-13.43-0.01-20.14c-0.01-4.35-0.01-8.69,0-13.02c0-6.74-0.02-13.47,0-20.21
			c0.01-4.35,0-8.69,0-13.03c-0.01-6.7-0.01-13.39,0-20.08c0-4.35-0.01-8.69-0.01-13.04c-0.01-4.59-0.01-9.19,0.0299-13.78
			c20.88,4.97,41.6801,10.24,62.5901,15.04c-0.02-3.09-0.04-6.1801-0.0801-9.27c-96.6-36.07-193.0599-72.49-289.6499-108.56
			c-78.7001,29.45-157.3401,59.02-236.02,88.53c-17.91,6.61-35.7101,13.57-53.7001,19.99c-0.0499,3.14-0.0699,6.29-0.0599,9.45
			c20.91-5.1,41.83-10.16,62.78-15.13c0.24,15.62-0.02,31.23,0,46.86c0.0099,4.37,0.0099,8.75,0,13.12
			c-0.03,6.72-0.03,13.44,0.0099,20.16c0.1201,10.86-0.58,21.73,0.0701,32.59c0.3199,9.91-0.3,19.83-0.0701,29.75
			c0.42,12.39-0.22,24.79,0,37.18c-0.0099,4.33,0.01,8.66,0,13c-0.0299,6.69-0.0399,13.39-0.0099,20.08
			c0.0199,4.34,0.0099,8.68,0.0099,13.02c-0.0299,6.77-0.0399,13.54-0.0099,20.31c0.0199,4.3,0.0199,8.59,0,12.9
			c-0.2101,13.17,0.4399,26.34-0.02,39.51c0.12,13,0.24,26,0,39.01c0.4199,13.73-0.15,27.47,0.0299,41.21c0,4.37,0,8.74,0,13.12
			c-0.0399,6.6901-0.0199,13.38-0.0099,20.0701c0,4.33,0.0099,8.6499,0.0099,12.99c-0.0299,6.7-0.0399,13.3999-0.0099,20.1
			c0.0099,4.38,0,8.77,0,13.16c-0.2301,12.7799,0.47,25.5499-0.01,38.33c0.0699,13.1899,0.2,26.37,0.01,39.5599
			c-55.41-2.5199-110.8501-4.35-166.3201-4.3199c0-2.38,0.01-4.75,0.01-7.11c-0.03-4.4301-0.02-8.86,0.01-13.28
			c-0.15-17.74-0.11-35.46-0.02-53.2c-0.02-4.38,0-8.74,0.01-13.11c0-6.7101,0.01-13.4301,0-20.13
			c-0.02-4.3301-0.02-8.65-0.01-12.9601c0.01-6.73,0.03-13.4399,0-20.16c-0.02-4.34-0.01-8.67,0.01-13
			c0.03-6.71-0.01-13.41-0.01-20.11c-0.01-4.36-0.01-8.71,0-13.06c0.02-6.77,0.02-13.53,0-20.3c-0.02-4.34-0.01-8.68,0.01-13.01
			c0.01-6.69,0.01-13.37-0.01-20.05c-0.02-4.34-0.02-8.67,0-13c0.02-6.77,0.02-13.54,0-20.31c-0.02-4.33-0.01-8.64,0.01-12.96
			c0.01-6.73,0.01-13.46-0.02-20.19c-0.01-4.34,0-8.68,0.02-13.02c0-6.7,0.01-13.4,0-20.09c-0.03-4.34-0.03-8.67-0.01-12.99
			c0.01-6.7,0.02-13.4,0.01-20.09c-0.02-4.43-0.02-8.86-0.01-13.28c0.01-6.7,0.03-13.4,0-20.09c-0.02-4.31-0.01-8.6,0.01-12.9
			c0.01-6.75,0-13.49-0.01-20.23c-0.01-4.32-0.01-8.64,0.01-12.95c0.01-6.71,0-13.42,0.01-20.12c-0.02-4.38-0.04-8.76-0.02-13.13
			c0.02-6.7,0.02-13.4,0-20.1c-0.02-4.35-0.02-8.69,0-13.04c0.01-4.59,0-9.17,0.03-13.76c11.98,2.96,24.0499,5.59,36.02,8.67
			c8.9,2.03,17.71,4.55,26.73,6.11c0.02-2.98,0.03-5.95,0.02-8.93c-92.89-34.77-185.76-69.63-278.61-104.51
			c-3.68-1.28-7.18-3.24-11.07-3.78c-3.91,0.59-7.45,2.48-11.15,3.76c-92.6,34.84-185.28,69.49-277.88,104.29
			c-1.4,2.43-0.44,6.04-0.66,8.92c3.01-0.37,6.02-0.83,8.97-1.56c17.81-4.39,35.65-8.67,53.49-12.94c0.01,4.56,0.01,9.12,0.01,13.68
			c0,4.37-0.01,8.74,0,13.11c0,6.68,0,13.36,0,20.05c0,4.35-0.01,8.7,0,13.06c0,6.72,0,13.44,0,20.17c-0.02,4.34-0.01,8.69,0,13.04
			c0,6.71,0,13.4301-0.01,20.15c-0.01,4.34-0.01,8.69,0,13.04c0.02,6.65,0.01,13.3,0,19.96c-0.01,4.43-0.01,8.87,0,13.31
			c0.01,6.67,0.02,13.35,0.01,20.04c-0.01,4.3701-0.01,8.7401,0,13.1201c0,6.66,0,13.3199,0,19.99c-0.01,4.35-0.02,8.7-0.01,13.06
			c0.01,6.75,0.02,13.49,0.01,20.24c-0.01,4.34-0.01,8.68,0,13.02c0,6.71,0,13.42-0.01,20.1299c0,4.36,0.01,8.72,0.01,13.08
			c0,6.67,0,13.33,0,20c0,4.36,0,8.73,0,13.1c-0.01,6.73,0,13.46-0.01,20.2c-0.01,4.36-0.01,8.7401,0.01,13.11
			c0,6.69,0,13.38,0,20.07c-0.02,4.35-0.02,8.71,0,13.08c0,6.6801,0.01,13.36,0,20.04c-0.01,4.34-0.01,8.6699,0,13.02
			c0,6.74,0,13.48,0,20.23c-0.01,4.35,0,8.7,0,13.0699c0,6.6801,0,13.36,0,20.05c-0.01,4.36,0.01,8.72,0.01,13.09
			c-0.02,4.6-0.02,9.2001,0.03,13.8c-9.52-12.98-19.06-25.9401-28.46-39c-10.1801-14.8-21.1201-29.0801-30.5-44.42
			c-3.71-5.52-7.94-11.91-14.8701-13.41c-4.47,0.27-7.1299,4.3401-9.9399,7.28c-23.1201,1.78-46.16,4.4401-69.26,6.5
			c0.14-14.46,0.07-28.92-0.05-43.38c-0.11-33.33-0.0099-66.67-0.0699-100.01c0.64-11.3799-0.1801-22.77,0.17-34.15
			c0.27-10.58-0.21-21.15-0.09-31.73c-0.12-22.3701-0.04-44.7401-0.07-67.1c0.6-10.81-0.1-21.62,0.06-32.43
			c-0.08-17.8-0.06-35.61-0.0099-53.42c0.4-19.96-0.27-39.92,0.31-59.88c20.8,5.16,41.64,10.12,62.48,15.12
			c0.01-3.04,0.02-6.07,0.04-9.11c-93.48-35.36-187.16-70.2-280.69-105.45c-2.94-1.07-5.83-2.42-8.95-2.89
			c-2.91,0.02-5.53,1.57-8.23,2.49c-74.18,27.86-148.39,55.65-222.57,83.52c-19.77,7.46-39.64,14.69-59.33,22.37
			c0.01,2.99-0.01,5.99-0.04,8.99c21-4.7,41.85-10.05,62.79-15.01c0.08,4.56,0.07,9.12,0.07,13.68c0,4.3701-0.01,8.7401-0.01,13.11
			c0.01,6.69,0,13.38,0.01,20.08c0,4.33-0.01,8.66-0.01,12.9901c-0.02,6.7599,0.01,13.52,0.01,20.29c0.01,4.3,0.01,8.6-0.01,12.91
			c0,6.7401,0,13.48,0.01,20.22c0.01,4.31,0.01,8.62-0.01,12.94c0,6.71,0,13.44,0.01,20.16c0,4.4,0.01,8.81-0.01,13.22
			c0,6.68,0,13.37,0.01,20.05c0.01,4.36,0.01,8.72,0,13.09c-0.01,6.66-0.01,13.33-0.01,20c0.01,4.36,0.01,8.72,0,13.08
			c0,6.74,0,13.49,0.01,20.23c0.01,4.29,0,8.58,0,12.8799c-0.01,6.75-0.01,13.5-0.01,20.26c0.01,4.34,0.01,8.69,0,13.05
			c-0.02,6.68,0.01,13.37,0.01,20.06c0.01,4.3199,0.01,8.66-0.01,13c-0.01,6.77,0,13.55,0.01,20.33c0.01,4.32,0,8.64-0.01,12.97
			c0,6.72,0,13.45,0.01,20.18c0.01,4.33,0.01,8.66,0,13c0,6.7-0.03,13.41-0.01,20.1199c0.01,4.3201,0.01,8.65,0.01,12.9801
			c0,6.74-0.03,13.49-0.01,20.24c0.01,4.3199,0,8.65,0,12.99c0,6.6699,0,13.35,0,20.0399c0.01,4.38,0.01,8.76,0.01,13.16
			c0,6.74-0.02,13.49,0.01,20.24c0,3.14-0.01,6.3-0.03,9.4601C70.38,1149.88,35.2,1151.21,0,1152.24v-855.1
			c7.35-1.32,14.73-2.46,22-4.2C91.06,275.14,160.79,259.84,231.09,247.77z"/>
		<path fill="#6A7C66" stroke="#6A7C66" stroke-width="0.0938" d="M653.1,1083.26c-0.25-2.17-0.22-4.33-0.11-6.48
			c16.5,23.61,33.62,46.8099,49.23,71.03c1.6201,2.6299,4.34,5.6599,2.53,8.8999c-3.17,6.62-6.86,13.04-11.19,18.98l0.57-1.2
			c-3.11-0.02-6.21,0.05-9.31,0.16C670.91,1145.48,660.63,1114.67,653.1,1083.26z"/>
	</g>
	<g id="_x23_c82b34ff">
		<path fill="#C82B34" stroke="#C82B34" stroke-width="0.0938" d="M324.67,527.67c2.7-0.92,5.32-2.47,8.23-2.49
			c3.12,0.47,6.01,1.82,8.95,2.89c93.53,35.25,187.21,70.09,280.69,105.45c-0.02,3.04-0.03,6.07-0.04,9.11
			c-20.84-5-41.68-9.96-62.48-15.12c-0.34-0.08-1.02-0.25-1.36-0.33c-8.1-1.78-16.09-4.01-24.22-5.64
			c-15.52-4.0099-31.12-7.71-46.72-11.4c-20.29-4.88-40.51-10.07-60.88-14.54c-15.21-4.13-30.62-7.48-45.9-11.3
			c-14.94-3.63-29.9-7.18-44.83-10.86c-4.8-1.5-9.53,0.96-14.19,1.82c-12.56,3.02-25.11,6.05-37.66,9.1
			c-15.91,3.81-31.84,7.57-47.69,11.6c-19.76,4.59-39.46,9.45-59.17,14.23c-15.35,3.7-30.75,7.19-46,11.27
			c-8.7,1.71-17.25,4.07-25.88,6.08c-20.94,4.96-41.79,10.31-62.79,15.01c0.03-3,0.05-6,0.04-8.99
			c19.69-7.68,39.56-14.91,59.33-22.37C176.28,583.32,250.49,555.53,324.67,527.67z"/>
		<path fill="#C82B34" stroke="#C82B34" stroke-width="0.0938" d="M234.67,674.26c64.01-0.11,128.03-0.15,192.04,0.02
			c-0.01,4.37-0.01,8.75-0.01,13.12c0,6.74-0.01,13.47,0,20.21c0,4.36-0.01,8.72,0,13.08c-0.01,6.69,0,13.39,0,20.1
			c-0.01,4.33-0.01,8.67,0,13.01c0,6.68,0,13.36,0,20.05c-0.01,4.42-0.01,8.85,0,13.29c0,6.67,0,13.35-0.01,20.03
			c-0.01,4.35,0,8.71,0.01,13.07c0,6.68,0,13.36,0,20.04c-0.01,4.36-0.01,8.73,0,13.1c0,6.73-0.01,13.47,0,20.21
			c0,4.34-0.01,8.69-0.01,13.04c0.01,6.69,0.01,13.39,0.01,20.09c0,4.35-0.01,8.71,0,13.07c0,6.68,0,13.36,0,20.05
			c-0.01,4.34-0.02,8.69,0,13.04c-0.01,6.76,0,13.51,0,20.28c-0.01,4.34-0.01,8.69,0,13.04c0.01,6.69-0.01,13.38,0,20.07
			c0,4.36-0.01,8.71,0,13.07c0,6.7,0,13.4-0.01,20.1099c-0.01,4.3301,0.01,8.67,0.01,13.02c0,6.73,0,13.47-0.01,20.2001
			c-0.01,4.33,0.01,8.6499,0.01,12.99c0,6.6799-0.01,13.36,0,20.0499c0.01,4.36,0.01,8.73,0,13.11c-0.01,6.76-0.01,13.53,0.01,20.3
			c0,4.08-0.02,8.16-0.06,12.25c-8.25-0.21-16.5,0.11-24.75-0.17c-55.32-8.1699-111.43-9.0199-167.24-7.6399
			c0-1.5601-0.01-3.14,0-4.67c0.01-6.65,0-13.28,0.01-19.92c0.01-4.4099-0.01-8.8199,0-13.23c0-6.7,0-13.4-0.01-20.1
			c0-4.3101,0-8.62,0-12.9301c0.01-6.76,0.01-13.52,0-20.2799c0-4.3301,0-8.66,0-12.9801c0-6.71,0.01-13.4099,0-20.1199
			c0-4.35,0-8.69-0.01-13.03c0.02-6.69,0.02-13.38,0.01-20.06c0-4.4,0.01-8.79,0-13.18c0.02-6.75-0.01-13.5-0.01-20.24
			c0.02-4.33,0.01-8.65,0.01-12.97c0.01-6.71,0.01-13.41,0-20.11c0-4.34,0-8.67,0-12.99c0.01-6.75,0.01-13.49,0-20.23
			c0-4.3,0.01-8.61,0-12.9c0.01-6.78,0.01-13.55,0-20.32c-0.01-4.31-0.01-8.62,0-12.93c0.01-6.72,0.01-13.44,0-20.16
			c0-4.35,0.01-8.69,0-13.02c-0.01-6.71,0.01-13.42,0-20.12c0.01-4.4,0-8.79,0-13.18c0.01-6.71,0.01-13.42-0.01-20.12
			c0.01-4.33,0.02-8.65,0.01-12.97c0.01-6.72,0.01-13.44,0.01-20.15c-0.01-4.33-0.01-8.66-0.01-12.98
			c0.01-6.72,0.01-13.43,0.01-20.14C234.66,683.11,234.67,678.68,234.67,674.26 M324.07,700.06c-2.96,2.24-5.84,4.57-8.8,6.8
			c0.41,0.68,1.23,2.05,1.65,2.74c1.51-0.64,3.03-1.25,4.56-1.85c0.27,7.21,0.16,14.42-0.1,21.63c2.52-0.01,5.05-0.01,7.58,0
			c-0.26-10.1-0.35-20.21,0.23-30.29C327.47,699.23,325.43,698.71,324.07,700.06z"/>
	</g>
	<g id="_x23_6a90a7ff">
		<path fill="#6A90A7" stroke="#6A90A7" stroke-width="0.0938" d="M928.83,528.84c3.7-1.28,7.24-3.17,11.15-3.76
			c3.89,0.54,7.39,2.5,11.07,3.78c92.85,34.88,185.72,69.74,278.61,104.51c0.01,2.98,0,5.95-0.02,8.93
			c-9.02-1.56-17.83-4.08-26.73-6.11c-11.9701-3.08-24.04-5.71-36.02-8.67c-8.5-2.01-16.92-4.34-25.5-5.95
			c-15.41-4.22-31.02-7.68-46.54-11.43c-20.12-4.83-40.16-10.03-60.39-14.39c-15.35-4.21-30.91-7.65-46.3699-11.46
			c-13.7-3.34-27.4301-6.57-41.1201-9.95c-3.24-0.78-6.61-2.02-9.9399-1.02c-15.23,3.74-30.48,7.4-45.72,11.07
			c-15.25,3.8-30.64,7.12-45.78,11.34c-20.48,4.35-40.73,9.69-61.1,14.5c-15.3,3.76-30.71,7.15-45.9,11.35
			c-8.69,1.55-17.19,3.99-25.78,5.97c-17.84,4.27-35.68,8.55-53.49,12.94c-2.95,0.73-5.96,1.19-8.97,1.56
			c0.22-2.88-0.74-6.49,0.66-8.92C743.55,598.33,836.23,563.68,928.83,528.84z"/>
		<path fill="#6A90A7" stroke="#6A90A7" stroke-width="0.0938" d="M841.83,674.29c10.38-0.28,20.77-0.07,31.16-0.13
			c53.64,0.07,107.29-0.15,160.9401,0.11c-0.1101,4.37,0,8.75,0.0299,13.12c-0.1,6.75-0.09,13.51-0.08,20.26
			c-0.02,4.34-0.01,8.68,0.01,13.03c-0.01,6.72-0.05,13.43,0.09,20.15c0.01,4.32-0.15,8.64-0.11,12.97c0.03,6.67,0.02,13.35,0,20.03
			c-0.05,4.36,0.09,8.72,0.1,13.09c-0.11,6.74-0.09,13.49-0.08,20.24c-0.02,4.4-0.03,8.79-0.01,13.19c0.01,6.62,0,13.25,0,19.87
			c-0.02,4.39-0.02,8.79-0.01,13.19c0.01,6.71,0.01,13.4301,0.02,20.14c-0.02,4.32-0.01,8.64,0,12.97c-0.01,6.72-0.01,13.43,0,20.15
			c-0.01,4.38-0.03,8.76-0.01,13.14c0,6.66,0.01,13.32,0,19.98c-0.02,4.37-0.02,8.75,0.01,13.13c0.01,6.74-0.04,13.48,0.09,20.22
			c-0.01,4.34-0.16,8.68-0.11,13.03c0.02,6.69,0.02,13.39,0,20.09c-0.03,4.36,0.0699,8.71,0.08,13.08
			c-0.1,6.68-0.0699,13.3599-0.0599,20.05c-0.03,4.36-0.04,8.71-0.01,13.08c0,6.72-0.02,13.4401,0.0599,20.17
			c-0.0099,4.35-0.09,8.71-0.0599,13.0699c0.01,6.64,0,13.29,0.01,19.9401c-0.03,4.4-0.04,8.8199-0.01,13.24
			c0.01,6.65,0,13.3099,0.01,19.98c-0.01,2.8199-0.02,5.66-0.01,8.5c-35.21-3.22-71.02-3.25-105.77,3.88
			c-28.76,0.15-57.53,0.1-86.29,0.05c-0.03-4.1101-0.02-8.2101,0.02-12.3c0.04-6.71,0.0099-13.42,0.02-20.13
			c-0.02-4.37-0.07-8.74-0.03-13.1c0.05-6.71,0.02-13.42,0.03-20.12c0-4.37,0.01-8.74,0.01-13.1c-0.01-6.7201,0-13.4301-0.04-20.14
			c-0.03-4.3301,0.01-8.66,0.02-12.9701c-0.02-6.71,0.04-13.3999,0-20.0999c-0.03-4.35-0.03-8.7-0.0099-13.04
			c0.03-6.71,0.02-13.41,0-20.11c-0.02-4.36-0.03-8.72,0-13.07c0.05-6.76,0.0099-13.51-0.01-20.25c0-4.34-0.03-8.67,0-13
			c0.04-6.7,0.03-13.39,0.03-20.09c-0.02-4.35-0.05-8.71-0.01-13.0601c0.02-6.72,0.01-13.4399,0-20.15
			c-0.03-4.33-0.06-8.66-0.02-12.98c0.04-6.75,0.04-13.5,0.01-20.25c-0.03-4.35,0.0099-8.7,0.03-13.05c0-6.69,0-13.38-0.04-20.06
			c-0.03-4.35,0-8.7,0.01-13.04c0.02-6.73,0.05-13.46,0-20.18c-0.03-4.39-0.01-8.76,0-13.14c0.0099-6.69,0.04-13.39,0-20.08
			c-0.02-4.33-0.02-8.65,0-12.98c0.05-6.73,0-13.47,0.0099-20.21c-0.02-4.3199-0.05-8.64-0.02-12.95
			c0.04-6.72,0.04-13.4301,0.03-20.13C841.85,683.1,841.82,678.69,841.83,674.29 M927.98,699.33c-0.16,1.79-0.32,3.57-0.45,5.38
			c3.35-0.13,7.02-0.81,10.1,0.95c2.68,1.7401,2.57,5.61,1.16,8.15c-2.38,4.52-6.95,7.21-11.14,9.84c-0.2,1.9-0.4,3.8-0.58,5.73
			c7.33-0.04,14.67-0.02,22-0.01c0.15-2.06,0.31-4.11,0.48-6.16c-4.99,0.14-9.97,0.41-14.96,0.4c4.17-2.65,8.83-5.17,11.27-9.68
			c2.14-4.03,2.04-9.91-1.89-12.81C939.3,697.83,933.28,698.71,927.98,699.33z"/>
	</g>
	<g id="_x23_e6b455ff">
		<path fill="#E6B455" stroke="#E6B455" stroke-width="0.0938" d="M1324.16,613.23c78.6799-29.51,157.3199-59.08,236.02-88.53
			c96.59,36.07,193.0499,72.49,289.6499,108.56c0.04,3.09,0.0601,6.18,0.0801,9.27c-20.91-4.8-41.7101-10.07-62.5901-15.04
			c-7.99-1.89-15.9399-3.96-23.98-5.64c-15.89-4.03-31.7999-7.97-47.77-11.6c-19.72-4.77-39.38-9.78-59.1699-14.2
			c-15.78-4.13-31.6901-7.72-47.52-11.63c-15.15-3.65-30.3-7.3-45.4301-11.02c-4.24-1.16-8.45,0.5099-12.5299,1.46
			c-13.2201,3.25-26.4601,6.43-39.6801,9.63c-15.85,3.88-31.78,7.46-47.55,11.62c-19.5699,4.42-39.0399,9.3-58.5199,14.07
			c-16.4801,3.94-32.99,7.74-49.41,11.91c-7.5601,1.7-15.0601,3.64-22.58,5.45c-20.9501,4.97-41.87,10.03-62.78,15.13
			c-0.01-3.16,0.01-6.31,0.0599-9.45C1288.45,626.8,1306.25,619.84,1324.16,613.23z"/>
		<path fill="#E6B455" stroke="#E6B455" stroke-width="0.0938" d="M1462.29,674.27c12.8999-0.26,25.7999-0.05,38.71-0.12
			c51.12,0.1,102.25-0.19,153.37,0.15c-0.03,4.41-0.0699,8.81-0.0599,13.22c0.0099,6.72,0,13.43,0.0099,20.14
			c-0.0099,4.32-0.0099,8.65,0,12.97c0.01,6.73-0.0099,13.46,0.02,20.2c-0.0299,4.31-0.0299,8.62-0.01,12.94
			c-0.0199,6.7-0.0199,13.4,0,20.1c-0.0299,4.4-0.0199,8.8,0.01,13.2c-0.0299,6.7-0.01,13.4-0.01,20.1
			c-0.0199,4.36-0.0199,8.72-0.01,13.08c-0.0099,6.68,0,13.37,0,20.06c-0.0099,4.34-0.0199,8.68-0.0099,13.03
			c0.0099,6.7,0.0099,13.41,0,20.12c-0.01,4.37,0,8.75,0.0099,13.13c0,6.69,0,13.4-0.0099,20.1c-0.01,4.36,0,8.72,0.0099,13.09
			c-0.0099,6.71-0.0099,13.42,0,20.1299c-0.0199,4.3-0.0199,8.61,0.01,12.9301c0,6.7599-0.0199,13.53,0.01,20.3
			c-0.02,4.34-0.0399,8.68-0.01,13.03c-0.0199,6.71-0.01,13.42-0.01,20.14c-0.0299,4.34,0,8.69,0.02,13.04
			c-0.0299,6.73-0.02,13.4501-0.01,20.1901c-0.0199,4.2799-0.0199,8.5699-0.01,12.87c-0.0099,6.76,0,13.51,0,20.27
			c-0.0199,4.3199-0.0099,8.6399,0,12.97c0,6.7,0,13.4,0,20.1c-0.0099,4.36-0.0099,8.72,0,13.08
			c0,6.6901-0.0099,13.38-0.0199,20.0701c0,2.65,0.0399,5.2999,0.11,7.97c-12.54,0.8-25.0601,1.83-37.5,3.58
			c-4.3101,0.64-8.66,0.89-13,0.76c-32.65,0.3301-65.3,0.0601-97.9401,0.15c-14.03,0.1801-28.08-0.47-42.09,0.36
			c-0.37,0.02-1.12,0.0701-1.49,0.0901c-0.0701-4.3201-0.1-8.64-0.1-12.9601c-0.03-6.66-0.04-13.3199,0-19.98
			c0.01-4.4,0.02-8.8,0-13.1899c-0.04-6.67-0.04-13.3401,0-20c0.02-4.3501,0.01-8.6901,0-13.03c-0.04-6.74-0.03-13.47,0-20.2101
			c0.01-4.34,0.01-8.6899,0-13.0199c-0.02-6.6901-0.04-13.36,0-20.04c0.01-4.36,0.01-8.72,0-13.08c-0.03-6.72-0.05-13.43,0-20.15
			c0.02-4.34,0-8.6801-0.02-13.01c-0.03-6.76,0.01-13.52,0.01-20.27c0.02-4.36,0.02-8.72,0.01-13.08c-0.03-6.66-0.04-13.33,0-19.98
			c0.02-4.38,0.02-8.76,0-13.13c-0.04-6.73-0.03-13.45-0.01-20.17c0.02-4.33,0.03-8.64,0.01-12.95c-0.04-6.73-0.04-13.46,0-20.18
			c0.02-4.37,0.02-8.74,0-13.11c-0.04-6.66-0.03-13.32,0-19.98c0.01-4.38,0.01-8.7599,0-13.13c-0.01-6.66-0.05-13.3199-0.01-19.98
			c0.02-4.45,0.03-8.9,0.01-13.34c-0.04-6.6801-0.05-13.36,0-20.03c0.02-4.34,0-8.67-0.01-13c-0.03-6.72-0.01-13.44,0.01-20.15
			c0.01-4.34,0.01-8.68,0-13.0099c-0.03-6.7401-0.05-13.4901,0-20.23C1462.3199,683.03,1462.33,678.65,1462.29,674.27
			 M1551.62,699.41c-0.14,1.73-0.28,3.45-0.39,5.19c3.9301-0.05,8.3-0.94,11.8201,1.34c1.22,1.86,1.34,4.97-0.76,6.29
			c-2.52,1.92-5.75,2.32-8.8,2.43c-0.35,1.52-0.6799,3.04-0.97,4.58c3.4199,0.29,7.11,0.23,10.1799,2.05
			c3.13,1.58,3.74,6.27,1.4601,8.83c-3.5701,4.48-9.66,5.28-14.98,5.9c0.12,1.58,0.2699,3.18,0.4299,4.79
			c7.52-0.38,15.77-2.26,20.79-8.35c2.9299-3.3,3.25-8.34,1.4299-12.2401c-1.4199-2.71-4.2699-4.06-6.97-5.09
			c2.47-1.81,5.59-3.64,5.96-7.01c0.77-3.5-1.33-7.17-4.6799-8.33C1561.47,698.11,1556.4,698.72,1551.62,699.41z"/>
	</g>
	<g id="_x23_cbc6c6ff">
		<path fill="#CBC6C6" stroke="#CBC6C6" stroke-width="0.0938" d="M236.57,595.96c15.85-4.03,31.78-7.79,47.69-11.6
			c2.24,0.17,4.49,0.42,6.75,0.46c25.3-0.08,50.61-0.01,75.91-0.04c4.68,0.1,9.37,0.16,14.02-0.48c15.28,3.82,30.69,7.17,45.9,11.3
			c-4.25,0.7-8.54,0.8-12.83,0.67c-56,0.01-112,0-168,0C242.86,596.28,239.71,596.08,236.57,595.96z"/>
		<path fill="#CBC6C6" stroke="#CBC6C6" stroke-width="0.0938" d="M1608.88,584.42c15.83,3.91,31.74,7.5,47.52,11.63
			c-22.49,0.51-45,0.08-67.49,0.22c-41.74-0.1-83.48,0.21-125.2201-0.16c15.77-4.16,31.7001-7.74,47.55-11.62
			c21.59,0.66,43.2,0.11,64.8101,0.29C1586.99,584.59,1597.96,585.21,1608.88,584.42z"/>
		<path fill="#CBC6C6" stroke="#CBC6C6" stroke-width="0.0938" d="M105.58,1039.4399c43.03,0.01,86.05-0.0099,129.08,0.01
			c0,4.3201,0,8.65,0,12.9801c-43.02,0.0599-86.05,0.0699-129.07-0.01C105.59,1048.09,105.59,1043.76,105.58,1039.4399z"/>
		<path fill="#CBC6C6" stroke="#CBC6C6" stroke-width="0.0938" d="M712.76,1039.4c43.03,0.08,86.06,0.02,129.09,0.0399
			c-0.0099,4.3101-0.05,8.64-0.02,12.9701c-43.02,0.11-86.05,0.09-129.07,0.01C712.75,1048.0699,712.75,1043.74,712.76,1039.4z"/>
		<path fill="#CBC6C6" stroke="#CBC6C6" stroke-width="0.0938" d="M1033.89,1039.39c44.3199,0.12,88.65,0,132.97,0.0699
			c-0.01,4.3101-0.01,8.63,0.01,12.9601c-44.33,0.12-88.66,0.0199-132.99,0.0499C1033.85,1048.1,1033.86,1043.75,1033.89,1039.39z"
			/>
		<path fill="#CBC6C6" stroke="#CBC6C6" stroke-width="0.0938" d="M1333.1801,1039.4301c43.0299,0.0099,86.0699,0.0399,129.11-0.01
			c0.01,4.33,0.01,8.6799,0,13.0199c-43.04,0.03-86.0701,0.0801-129.1001-0.0199
			C1333.1899,1048.08,1333.1801,1043.76,1333.1801,1039.4301z"/>
		<path fill="#CBC6C6" stroke="#CBC6C6" stroke-width="0.0938" d="M1654.33,1039.54c44.3201-0.24,88.65-0.01,132.9801-0.12
			c-0.01,4.34-0.02,8.6799-0.01,13.0299c-44.3301,0.01-88.66,0.0801-132.9801-0.0399
			C1654.3101,1048.11,1654.3101,1043.8199,1654.33,1039.54z"/>
	</g>
	<g id="_x23_cbc6c5ff">
		<path fill="#CBC6C5" stroke="#CBC6C5" stroke-width="0.0938" d="M845.53,595.73c15.14-4.22,30.53-7.54,45.78-11.34
			c6.54,0.7,13.12,0.32,19.69,0.39c19.64,0,39.28,0.0099,58.93,0c6.05-0.1,12.14,0.4,18.16-0.4901
			c15.46,3.81,31.02,7.25,46.3699,11.46c-11.79,1.08-23.64,0.27-35.46,0.52c-38.35,0-76.69,0-115.03,0
			C871.16,595.99,858.3,596.88,845.53,595.73z"/>
	</g>
	<g id="_x23_cdc5c6ff">
		<path fill="#CDC5C6" stroke="#CDC5C6" stroke-width="0.0938" d="M131.4,621.46c15.25-4.08,30.65-7.57,46-11.27
			c6.86,0.44,13.74,0.21,20.6,0.29c82.02,0.01,164.03,0,246.04,0.01c14.56-0.19,29.14,0.38,43.68-0.35
			c15.6,3.69,31.2,7.39,46.72,11.4c-9.14,1.1-18.33,0.1-27.5,0.54c-121.31,0.02-242.62,0.02-363.92,0
			C139.13,622.18,135.25,621.85,131.4,621.46z"/>
		<path fill="#CDC5C6" stroke="#CDC5C6" stroke-width="0.0938" d="M738.53,621.58c15.1899-4.2,30.6-7.59,45.9-11.35
			c32.17,0.58,64.37,0.1,96.55,0.26c60.66-0.01,121.32-0.01,181.99,0c10.62-0.18,21.27,0.38,31.88-0.35
			c15.52,3.75,31.13,7.21,46.54,11.43c-10.11,0.87-20.25,0.39-30.37,0.51c-57.6801,0.02-115.35,0.01-173.02,0.01
			c-61.98-0.08-123.97,0.18-185.95-0.16C747.54,622.11,743.02,622.08,738.53,621.58z"/>
		<path fill="#CDC5C6" stroke="#CDC5C6" stroke-width="0.0938" d="M1355.76,622.09c16.42-4.17,32.9299-7.97,49.41-11.91
			c22.26,0.69,44.5499,0.11,66.8199,0.31c56.99-0.01,113.98-0.01,170.98,0c24.1901-0.16,48.41,0.3,72.6-0.24
			c15.9701,3.63,31.88,7.57,47.77,11.6c-23.11,0.52-46.24,0.11-69.35,0.2401C1581.25,622.09,1468.5,622.1,1355.76,622.09z"/>
		<path fill="#CDC5C6" stroke="#CDC5C6" stroke-width="0.0938" d="M1033.89,873.55c44.3199-0.05,88.65,0.05,132.98-0.05
			c-0.02,4.32-0.03,8.63-0.01,12.96c-44.3199,0.22-88.65,0.1-132.97,0.06C1033.88,882.19,1033.87,877.87,1033.89,873.55z"/>
		<path fill="#CDC5C6" stroke="#CDC5C6" stroke-width="0.0938" d="M1654.3101,873.46c44.33,0.24,88.6599-0.07,132.99,0.16
			c0.01,4.33,0,8.68,0,13.03c-44.3301-0.17-88.66-0.05-132.9801-0.06C1654.3101,882.21,1654.3,877.83,1654.3101,873.46z"/>
		<path fill="#CDC5C6" stroke="#CDC5C6" stroke-width="0.0938" d="M105.59,873.59c43.02-0.07,86.05-0.1201,129.07,0.03
			c0.01,4.29,0,8.6,0,12.9c-43.02,0.05-86.05,0.14-129.07-0.05C105.59,882.17,105.6,877.88,105.59,873.59z"/>
		<path fill="#CDC5C6" stroke="#CDC5C6" stroke-width="0.0938" d="M712.76,873.57c43.02-0.04,86.05-0.08,129.07,0.02
			c-0.04,4.3199-0.01,8.65,0.02,12.98c-43.03,0.01-86.06-0.03-129.09,0.02C712.75,882.25,712.75,877.91,712.76,873.57z"/>
		<path fill="#CDC5C6" stroke="#CDC5C6" stroke-width="0.0938" d="M1333.1801,873.61c43.0399-0.15,86.0699-0.05,129.11-0.05
			c0.02,4.31,0.01,8.62-0.01,12.95c-43.03,0.1-86.0701,0.1-129.1,0C1333.2,882.2,1333.2,877.91,1333.1801,873.61z"/>
		<path fill="#CDC5C6" stroke="#CDC5C6" stroke-width="0.0938" d="M105.58,1105.6899c43.03,0.1001,86.06,0,129.09,0.05
			c-0.01,4.41,0.01,8.8201,0,13.23c-43.03-0.24-86.05,0.01-129.08-0.12C105.59,1114.45,105.59,1110.0699,105.58,1105.6899z"/>
		<path fill="#CDC5C6" stroke="#CDC5C6" stroke-width="0.0938" d="M426.7,1105.71c26.81-0.01,53.63,0.1001,80.44-0.0499
			c0.11,0.36,0.32,1.09,0.42,1.45c1.05,3.9401,2.2,7.85,3.34,11.76c-28.06-0.04-56.13,0.09-84.2-0.05
			C426.71,1114.4399,426.71,1110.0699,426.7,1105.71z"/>
		<path fill="#CDC5C6" stroke="#CDC5C6" stroke-width="0.0938" d="M712.76,1105.77c43.02-0.0701,86.04-0.0801,129.07,0
			c-0.04,4.36,0.01,8.73,0.03,13.1c-43.03,0-86.06,0.02-129.09-0.01C712.77,1114.49,712.75,1110.13,712.76,1105.77z"/>
		<path fill="#CDC5C6" stroke="#CDC5C6" stroke-width="0.0938" d="M1033.89,1105.65c44.14,0.21,88.29-0.03,132.4399,0.12
			c0.0701,4.35,0.0601,8.71-0.0299,13.08c-44.14,0.0701-88.28-0.01-132.42,0.04C1033.85,1114.47,1033.86,1110.05,1033.89,1105.65z"
			/>
		<path fill="#CDC5C6" stroke="#CDC5C6" stroke-width="0.0938" d="M1333.67,1105.79c42.87-0.1801,85.75,0.0399,128.62-0.11
			c0.02,4.3899,0.01,8.7899,0,13.1899c-42.86,0-85.7101,0.03-128.5701-0.02C1333.6,1114.49,1333.59,1110.14,1333.67,1105.79z"/>
		<path fill="#CDC5C6" stroke="#CDC5C6" stroke-width="0.0938" d="M1654.3199,1105.75c44.3201-0.04,88.65-0.03,132.9801,0
			c-0.01,4.35-0.01,8.71,0,13.0699c-44.3301,0.1001-88.65,0.0801-132.9801,0.01
			C1654.3101,1114.47,1654.3101,1110.11,1654.3199,1105.75z"/>
	</g>
	<g id="_x23_ccc6c6ff">
		<path fill="#CCC6C6" stroke="#CCC6C6" stroke-width="0.0938" d="M558.66,627.18c0.34,0.08,1.02,0.25,1.36,0.33
			c-0.58,19.96,0.09,39.92-0.31,59.88c-44.34,0.14-88.67,0.12-133.01,0.01c0-4.37,0-8.75,0.01-13.12
			c44.24,0.3199,88.48,0.1,132.72,0.11c0-6.63-0.08-13.27,0.16-19.9c-49.86-0.38-99.74-0.06-149.6-0.16
			c-101.47,0-202.94-0.01-304.41,0c0-4.37,0.01-8.74,0.01-13.11c151.28,0.05,302.57,0.04,453.85,0.01
			C559.52,636.53,559.84,631.77,558.66,627.18z"/>
		<path fill="#CCC6C6" stroke="#CCC6C6" stroke-width="0.0938" d="M712.76,641.23c151.37,0.06,302.74-0.04,454.1,0.05
			c-0.02,4.35-0.02,8.6899,0,13.04c-151.37,0.02-302.73-0.01-454.1,0.02C712.75,649.97,712.76,645.6,712.76,641.23z"/>
		<path fill="#CCC6C6" stroke="#CCC6C6" stroke-width="0.0938" d="M1333.79,641.24c151.1699,0.04,302.33-0.03,453.5,0.03
			c0,4.35,0.01,8.69,0.01,13.04c-151.2101,0.01-302.42,0.05-453.64-0.01C1333.51,649.94,1333.55,645.59,1333.79,641.24z"/>
		<path fill="#CCC6C6" stroke="#CCC6C6" stroke-width="0.0938" d="M105.59,707.69c43.02-0.16,86.05-0.12,129.07-0.02
			c0,4.32,0,8.65,0.01,12.98c-43.03-0.03-86.06,0.0699-129.09-0.05C105.6,716.29,105.6,711.99,105.59,707.69z"/>
		<path fill="#CCC6C6" stroke="#CCC6C6" stroke-width="0.0938" d="M426.7,707.61c44.23-0.01,88.45-0.03,132.68,0.01
			c0.04,4.29,0.06,8.59,0.07,12.89c-44.25,0.36-88.5,0-132.75,0.18C426.69,716.33,426.7,711.97,426.7,707.61z"/>
		<path fill="#CCC6C6" stroke="#CCC6C6" stroke-width="0.0938" d="M712.76,707.62c43.02-0.01,86.05-0.07,129.07,0.03
			c-0.03,4.31,0,8.63,0.02,12.95c-43.03,0.12-86.06,0.02-129.09,0.06C712.75,716.31,712.74,711.96,712.76,707.62z"/>
		<path fill="#CCC6C6" stroke="#CCC6C6" stroke-width="0.0938" d="M1033.88,707.65c44.33-0.07,88.66-0.1,132.99,0.02
			c-0.02,4.31-0.02,8.63-0.01,12.95c-44.3199,0.09-88.65-0.02-132.97,0.06C1033.87,716.33,1033.86,711.99,1033.88,707.65z"/>
		<path fill="#CCC6C6" stroke="#CCC6C6" stroke-width="0.0938" d="M1333.1899,707.68c43.03-0.15,86.0701-0.09,129.1001-0.03
			c0.01,4.33,0.01,8.67,0,13.0099c-42.9301-0.0099-85.86-0.02-128.79,0c-0.02,6.54-0.13,13.07-0.24,19.61
			C1332.61,729.41,1333.3101,718.54,1333.1899,707.68z"/>
		<path fill="#CCC6C6" stroke="#CCC6C6" stroke-width="0.0938" d="M1654.3199,707.66c44.3201-0.1299,88.65-0.06,132.9801-0.03
			c-0.01,4.33-0.01,8.67,0,13.02c-44.3201,0-88.65,0.03-132.9801-0.02C1654.3101,716.31,1654.3101,711.98,1654.3199,707.66z"/>
		<path fill="#CCC6C6" stroke="#CCC6C6" stroke-width="0.0938" d="M105.59,740.82c43.02-0.06,86.05-0.02,129.07-0.02
			c0.01,4.32,0,8.64-0.01,12.97c-43.02,0.02-86.04,0.05-129.07-0.01C105.6,749.44,105.6,745.13,105.59,740.82z"/>
		<path fill="#CCC6C6" stroke="#CCC6C6" stroke-width="0.0938" d="M426.7,740.79c44.34,0.03,88.68-0.03,133.02,0.02
			c-0.16,10.81,0.54,21.62-0.06,32.43c-0.3-6.47-0.31-12.94-0.18-19.41c-44.26-0.1-88.52-0.02-132.78-0.03
			C426.69,749.46,426.69,745.12,426.7,740.79z"/>
		<path fill="#CCC6C6" stroke="#CCC6C6" stroke-width="0.0938" d="M712.75,740.81c43.03-0.02,86.06-0.04,129.09,0
			c-0.02,4.33-0.02,8.65,0,12.98c-43.03,0.03-86.06-0.08-129.09,0.06C712.74,749.5,712.74,745.15,712.75,740.81z"/>
		<path fill="#CCC6C6" stroke="#CCC6C6" stroke-width="0.0938" d="M1033.98,740.83c44.3-0.05,88.59-0.09,132.89,0.02
			c-0.02,4.3-0.03,8.59-0.01,12.9c-44.33,0.1-88.66,0-132.99,0.05C1033.83,749.47,1033.99,745.15,1033.98,740.83z"/>
		<path fill="#CCC6C6" stroke="#CCC6C6" stroke-width="0.0938" d="M1333.64,740.84c42.88-0.1,85.76-0.03,128.64-0.03
			c0.01,4.33,0.03,8.66,0.01,13c-42.8501-0.06-85.7001,0.02-128.55-0.05C1333.58,749.45,1333.54,745.14,1333.64,740.84z"/>
		<path fill="#CCC6C6" stroke="#CCC6C6" stroke-width="0.0938" d="M1654.34,740.83c44.3201-0.09,88.64-0.01,132.9701-0.04
			c-0.01,4.33-0.01,8.66,0,13c-44.3301-0.02-88.65,0.02-132.9801-0.02C1654.3101,749.45,1654.3101,745.14,1654.34,740.83z"/>
		<path fill="#CCC6C6" stroke="#CCC6C6" stroke-width="0.0938" d="M105.59,773.92c43.02-0.11,86.04-0.05,129.07-0.03
			c0,4.39,0.01,8.78,0,13.18c-43.02,0.09-86.05-0.05-129.08,0.07C105.6,782.73,105.59,778.32,105.59,773.92z"/>
		<path fill="#CCC6C6" stroke="#CCC6C6" stroke-width="0.0938" d="M426.7,773.85c44.23,0.06,88.46-0.04,132.69,0.04
			c0.04,4.4,0.05,8.79,0.03,13.2c-44.24,0.05-88.48-0.06-132.72,0.05C426.69,782.7,426.69,778.27,426.7,773.85z"/>
		<path fill="#CCC6C6" stroke="#CCC6C6" stroke-width="0.0938" d="M712.75,773.81c43.03,0.13,86.06,0.01,129.09,0.06
			c-0.01,4.38-0.03,8.75,0,13.14c-43.03,0.22-86.06,0-129.09,0.11C712.74,782.68,712.74,778.24,712.75,773.81z"/>
		<path fill="#CCC6C6" stroke="#CCC6C6" stroke-width="0.0938" d="M1033.87,773.83c44.33,0.07,88.66,0.04,132.99,0.01
			c-0.01,4.42-0.01,8.85,0.01,13.28c-44.3-0.17-88.61,0.23-132.9-0.2C1033.96,782.55,1033.8199,778.19,1033.87,773.83z"/>
		<path fill="#CCC6C6" stroke="#CCC6C6" stroke-width="0.0938" d="M1333.65,773.93c42.88-0.18,85.76,0.02,128.64-0.09
			c0.02,4.44,0.01,8.89-0.01,13.34c-42.87-0.25-85.74,0.09-128.61-0.17C1333.59,782.65,1333.58,778.29,1333.65,773.93z"/>
		<path fill="#CCC6C6" stroke="#CCC6C6" stroke-width="0.0938" d="M1654.33,773.87c44.3301-0.02,88.65,0.02,132.9801-0.02
			c-0.01,4.37-0.01,8.7401-0.01,13.11c-44.3201,0.3-88.64,0.08-132.9601,0.11C1654.3101,782.67,1654.3,778.27,1654.33,773.87z"/>
		<path fill="#CCC6C6" stroke="#CCC6C6" stroke-width="0.0938" d="M105.59,807.19c43.02-0.05,86.05-0.04,129.07,0
			c0.01,4.33,0,8.67,0,13.02c-43.02,0.19-86.05,0.04-129.07,0.07C105.6,815.91,105.6,811.55,105.59,807.19z"/>
		<path fill="#CCC6C6" stroke="#CCC6C6" stroke-width="0.0938" d="M426.69,807.17c44.22,0.01,88.44-0.04,132.66,0.03
			c0.07,4.34,0.09,8.7,0.04,13.05c-44.23,0.06-88.46,0.08-132.69-0.01C426.69,815.88,426.68,811.52,426.69,807.17z"/>
		<path fill="#CCC6C6" stroke="#CCC6C6" stroke-width="0.0938" d="M712.76,807.16c43.02,0.03,86.05-0.03,129.08,0.03
			c-0.01,4.34-0.04,8.69-0.01,13.04c-43.02,0.14-86.05,0.03-129.07,0.05C712.75,815.9,712.75,811.53,712.76,807.16z"/>
		<path fill="#CCC6C6" stroke="#CCC6C6" stroke-width="0.0938" d="M1033.89,807.16c44.3199,0.04,88.64-0.05,132.97,0.05
			c-0.02,4.32-0.02,8.65,0.01,12.99c-44.33,0.25-88.66-0.05-132.99,0.15C1033.86,815.95,1033.87,811.56,1033.89,807.16z"/>
		<path fill="#CCC6C6" stroke="#CCC6C6" stroke-width="0.0938" d="M1333.1899,807.2c43.03-0.09,86.0601-0.01,129.1001-0.04
			c0.01,4.3701,0.01,8.75,0,13.13c-43.03-0.05-86.0701,0.12-129.1001-0.09C1333.2,815.86,1333.1801,811.53,1333.1899,807.2z"/>
		<path fill="#CCC6C6" stroke="#CCC6C6" stroke-width="0.0938" d="M1654.33,807.17c44.3201,0,88.65-0.02,132.9701,0.01
			c0,4.35-0.01,8.69,0,13.05c-44.3301,0.12-88.66,0.07-132.9801,0.02C1654.3101,815.89,1654.3101,811.53,1654.33,807.17z"/>
		<path fill="#CCC6C6" stroke="#CCC6C6" stroke-width="0.0938" d="M105.58,840.28c43.03,0.17,86.05-0.01,129.08,0.09
			c-0.01,4.31-0.01,8.62,0,12.93c-43.03,0.12-86.05,0.01-129.08,0.06C105.59,849,105.59,844.64,105.58,840.28z"/>
		<path fill="#CCC6C6" stroke="#CCC6C6" stroke-width="0.0938" d="M712.76,840.27c43.03,0.14,86.07,0.09,129.11,0.02
			c-0.02,4.35-0.06,8.7-0.03,13.05c-43.03,0.02-86.06,0.03-129.09-0.01C712.74,848.97,712.75,844.62,712.76,840.27z"/>
		<path fill="#CCC6C6" stroke="#CCC6C6" stroke-width="0.0938" d="M1033.88,840.22c44.3199,0.25,88.66,0.1201,132.99,0.07
			c-0.02,4.34-0.03,8.68-0.02,13.02c-44.3199,0.14-88.65-0.07-132.98,0.1C1033.86,849.01,1033.86,844.61,1033.88,840.22z"/>
		<path fill="#CCC6C6" stroke="#CCC6C6" stroke-width="0.0938" d="M1333.1801,840.28c43.0399,0.1,86.0699,0.12,129.11-0.01
			c0.02,4.37,0.02,8.74,0,13.11c-43.04-0.1-86.0701,0.06-129.1001-0.08C1333.1899,848.96,1333.2,844.62,1333.1801,840.28z"/>
		<path fill="#CCC6C6" stroke="#CCC6C6" stroke-width="0.0938" d="M1654.3199,840.31c44.3301,0.03,88.66,0.11,132.9901-0.05
			c-0.02,4.36-0.02,8.72-0.01,13.08c-44.3301,0.02-88.66,0.02-132.99,0C1654.3,848.99,1654.3101,844.65,1654.3199,840.31z"/>
		<path fill="#CCC6C6" stroke="#CCC6C6" stroke-width="0.0938" d="M105.58,906.73c43.03-0.02,86.05-0.06,129.08,0.02
			c0,4.32,0,8.65,0,12.99c-43.03,0.07-86.06-0.01-129.08,0.04C105.59,915.42,105.59,911.07,105.58,906.73z"/>
		<path fill="#CCC6C6" stroke="#CCC6C6" stroke-width="0.0938" d="M426.7,906.72c44.21,0,88.41-0.06,132.62,0.03
			c0.17,4.35,0.16,8.7-0.09,13.05c-44.18-0.07-88.36-0.04-132.53-0.01C426.69,915.43,426.7,911.07,426.7,906.72z"/>
		<path fill="#CCC6C6" stroke="#CCC6C6" stroke-width="0.0938" d="M712.75,906.72c43.03-0.0099,86.06-0.02,129.1,0
			c-0.04,4.35-0.0099,8.71,0.01,13.0601c-43.04-0.01-86.07-0.0601-129.1,0.02C712.76,915.44,712.75,911.08,712.75,906.72z"/>
		<path fill="#CCC6C6" stroke="#CCC6C6" stroke-width="0.0938" d="M1033.89,906.67c44.3199,0.13,88.65-0.07,132.97,0.1
			c-0.02,4.33-0.02,8.66,0,13c-44.33,0.02-88.66-0.07-132.98,0.04C1033.86,915.43,1033.88,911.05,1033.89,906.67z"/>
		<path fill="#CCC6C6" stroke="#CCC6C6" stroke-width="0.0938" d="M1333.6801,906.73c42.87-0.07,85.74,0.03,128.61-0.05
			c0.02,4.37,0.02,8.75,0,13.13c-42.87-0.13-85.74,0.03-128.6001-0.08C1333.61,915.39,1333.6,911.06,1333.6801,906.73z"/>
		<path fill="#CCC6C6" stroke="#CCC6C6" stroke-width="0.0938" d="M1654.3101,906.69c44.33,0.07,88.6599-0.06,132.99,0.07
			c0,4.33,0,8.67,0,13.01c-44.3301-0.01-88.65-0.02-132.9801,0.01C1654.3101,915.41,1654.3,911.05,1654.3101,906.69z"/>
		<path fill="#CCC6C6" stroke="#CCC6C6" stroke-width="0.0938" d="M105.59,939.84c43.02-0.03,86.05-0.05,129.07,0.0099
			c0,4.32,0.01,8.64-0.01,12.97c-43.02,0.13-86.04,0.09-129.07,0.02C105.6,948.5,105.6,944.16,105.59,939.84z"/>
		<path fill="#CCC6C6" stroke="#CCC6C6" stroke-width="0.0938" d="M426.7,939.84c44.25,0,88.5-0.11,132.76,0.05
			c-0.05,4.32-0.08,8.65-0.1,12.98c-44.22,0.05-88.44,0.02-132.66,0.01C426.68,948.53,426.69,944.18,426.7,939.84z"/>
		<path fill="#CCC6C6" stroke="#CCC6C6" stroke-width="0.0938" d="M712.76,939.8c43.02,0.08,86.05-0.07,129.07,0.07
			c-0.03,4.33,0,8.66,0,13c-43.02,0.06-86.05-0.01-129.07,0.03C712.76,948.53,712.76,944.16,712.76,939.8z"/>
		<path fill="#CCC6C6" stroke="#CCC6C6" stroke-width="0.0938" d="M1033.88,939.79c44.33,0.07,88.66,0.01,132.99,0.03
			c-0.02,4.33-0.03,8.67-0.01,13.01c-44.33,0.16-88.65-0.02-132.97,0.09C1033.86,948.54,1033.86,944.16,1033.88,939.79z"/>
		<path fill="#CCC6C6" stroke="#CCC6C6" stroke-width="0.0938" d="M1333.67,939.88c42.87-0.16,85.74,0.01,128.62-0.09
			c0.01,4.36,0.01,8.72-0.01,13.08c-42.86,0.05-85.73-0.01-128.5901,0.03C1333.61,948.56,1333.61,944.21,1333.67,939.88z"/>
		<path fill="#CCC6C6" stroke="#CCC6C6" stroke-width="0.0938" d="M1654.3199,939.91c44.3301-0.2,88.66-0.05,132.9801-0.08
			c0,4.34,0,8.68,0.01,13.03c-44.3301,0.04-88.66,0.08-132.9801-0.02C1654.3,948.52,1654.3,944.21,1654.3199,939.91z"/>
		<path fill="#CCC6C6" stroke="#CCC6C6" stroke-width="0.0938" d="M105.59,973.17c43.02-0.15,86.05,0.08,129.07-0.11
			c0.01,4.39,0,8.78,0,13.18c-43.03-0.07-86.05,0.12-129.08-0.1C105.59,981.81,105.6,977.49,105.59,973.17z"/>
		<path fill="#CCC6C6" stroke="#CCC6C6" stroke-width="0.0938" d="M426.7,973.16c44.23-0.06,88.45-0.03,132.68-0.02
			c0.05,4.34,0.06,8.69,0.02,13.04c-44.2401,0.11-88.47,0.06-132.7,0.02C426.69,981.85,426.69,977.5,426.7,973.16z"/>
		<path fill="#CCC6C6" stroke="#CCC6C6" stroke-width="0.0938" d="M712.75,973.1c43.03,0.06,86.06,0.02,129.09,0.02
			c-0.03,4.35-0.02,8.71,0,13.07c-43.02,0.09-86.05,0.05-129.08,0.02C712.74,981.84,712.74,977.46,712.75,973.1z"/>
		<path fill="#CCC6C6" stroke="#CCC6C6" stroke-width="0.0938" d="M1033.98,973.14c44.29-0.03,88.59-0.01,132.88-0.01
			c-0.01,4.35-0.01,8.7,0,13.06c-44.33,0.07-88.66,0.1-132.99-0.02C1033.8199,981.82,1033.97,977.48,1033.98,973.14z"/>
		<path fill="#CCC6C6" stroke="#CCC6C6" stroke-width="0.0938" d="M1333.6801,973.13c42.87,0,85.73-0.02,128.59,0.01
			c0.02,4.33,0.04,8.67,0.02,13.01c-42.87,0.15-85.75,0.11-128.62,0.03C1333.5699,981.82,1333.58,977.47,1333.6801,973.13z"/>
		<path fill="#CCC6C6" stroke="#CCC6C6" stroke-width="0.0938" d="M1654.34,973.14c44.3201-0.02,88.64-0.02,132.9601,0
			c-0.01,4.35,0,8.71,0.01,13.07c-44.3301,0.02-88.66,0.09-132.9801-0.04C1654.3,981.82,1654.3199,977.48,1654.34,973.14z"/>
		<path fill="#CCC6C6" stroke="#CCC6C6" stroke-width="0.0938" d="M105.59,1006.32c43.02-0.12,86.04-0.08,129.06-0.02
			c0.01,4.34,0.01,8.68,0.01,13.03c-43.02,0.11-86.05,0.13-129.07-0.01C105.6,1014.98,105.6,1010.65,105.59,1006.32z"/>
		<path fill="#CCC6C6" stroke="#CCC6C6" stroke-width="0.0938" d="M426.7,1006.27c44.34-0.06,88.68,0.03,133.02-0.04
			c0.1201,14.46,0.19,28.92,0.05,43.38c-11.66,1.2001-23.37,1.87-35,3.28c-9.32-1.01-18.72-0.16-28.07-0.42
			c-2.06-2.14-4.39-4.14-7.47-4.39c-1.72,1.5801-3.54,3.05-5.31,4.5801c-19.07-0.4401-38.15-0.0601-57.22-0.1901
			c0-4.35-0.02-8.6899-0.01-13.02c44.26-0.0399,88.52,0.02,132.78-0.0299c-0.04-6.65-0.1-13.3,0.07-19.9501
			c-44.28-0.2-88.56,0.05-132.84-0.1299C426.69,1014.98,426.7,1010.63,426.7,1006.27z"/>
		<path fill="#CCC6C6" stroke="#CCC6C6" stroke-width="0.0938" d="M712.76,1006.28c43.02-0.02,86.05-0.07,129.08,0.02
			c-0.02,4.34-0.02,8.69,0.0099,13.04c-43.03,0.11-86.06,0.0699-129.09,0.02C712.74,1014.99,712.74,1010.63,712.76,1006.28z"/>
		<path fill="#CCC6C6" stroke="#CCC6C6" stroke-width="0.0938" d="M1033.87,1006.26c44.33,0.01,88.67-0.05,133,0.04
			c-0.02,4.33-0.03,8.66-0.01,13c-44.2999,0.19-88.61,0.12-132.91,0.04C1033.9399,1014.97,1033.84,1010.62,1033.87,1006.26z"/>
		<path fill="#CCC6C6" stroke="#CCC6C6" stroke-width="0.0938" d="M1333.1899,1006.24c43.03,0.07,86.0701-0.06,129.1001,0.06
			c0.01,4.36,0.01,8.72,0,13.08c-43.03,0.02-86.0701,0.07-129.1001-0.02C1333.1899,1014.98,1333.1899,1010.61,1333.1899,1006.24z"/>
		<path fill="#CCC6C6" stroke="#CCC6C6" stroke-width="0.0938" d="M1654.3199,1006.31c44.3301-0.13,88.66-0.01,132.9901-0.06
			c-0.01,4.36-0.02,8.72-0.01,13.09c-44.3201,0.11-88.64,0.09-132.9601,0.0099C1654.3199,1015,1654.29,1010.65,1654.3199,1006.31z"
			/>
		<path fill="#CCC6C6" stroke="#CCC6C6" stroke-width="0.0938" d="M489.39,1072.55c2.84,4.45,6.08,8.63,9.08,12.98
			c-23.92,0.28-47.85,0.01-71.77,0.13c0-4.3401-0.02-8.66-0.01-12.99C447.59,1072.5601,468.49,1072.8101,489.39,1072.55z"/>
		<path fill="#CCC6C6" stroke="#CCC6C6" stroke-width="0.0938" d="M712.76,1072.65c43.03-0.0601,86.07,0.14,129.11-0.1
			c0,4.36-0.01,8.73-0.01,13.1c-43.03,0.03-86.07-0.1-129.1,0.0699C712.76,1081.35,712.75,1077,712.76,1072.65z"/>
		<path fill="#CCC6C6" stroke="#CCC6C6" stroke-width="0.0938" d="M1033.9399,1072.64c44.3101-0.03,88.6201,0.14,132.9301-0.09
			c-0.01,4.37-0.03,8.73-0.01,13.11c-44.33,0-88.66-0.0901-132.98,0.0499C1033.85,1081.35,1033.9301,1076.99,1033.9399,1072.64z"/>
		<path fill="#CCC6C6" stroke="#CCC6C6" stroke-width="0.0938" d="M1333.1801,1072.52c43.0299,0.3099,86.0699,0.0499,129.11,0.13
			c0.01,4.34,0.02,8.6799,0,13.03c-43.04-0.0601-86.0801-0.0601-129.11,0C1333.1801,1081.29,1333.1899,1076.9,1333.1801,1072.52z"/>
		<path fill="#CCC6C6" stroke="#CCC6C6" stroke-width="0.0938" d="M105.58,1072.66c43.03,0.0299,86.05-0.0901,129.08,0.0499
			c0,4.3101,0,8.62,0,12.9301c-43.02,0-86.05,0-129.08,0.01C105.58,1081.3101,105.59,1076.98,105.58,1072.66z"/>
		<path fill="#CCC6C6" stroke="#CCC6C6" stroke-width="0.0938" d="M1654.3199,1072.6801c44.3301-0.0601,88.66-0.02,132.9901-0.02
			c-0.01,4.34-0.01,8.6899-0.01,13.0399c-44.3301-0.13-88.65-0.0299-132.9801-0.0499
			C1654.3101,1081.3199,1654.3,1077,1654.3199,1072.6801z"/>
		<path fill="#CCC6C6" stroke="#CCC6C6" stroke-width="0.0938" d="M426.71,1139.12c29.96-0.59,59.93-0.03,89.9-0.29
			c1.29,4.49,2.78,8.92,4.34,13.3401c-27.99-0.0601-55.97-0.02-83.95-0.01c-9.16,0.0599-18.33-0.5-27.48,0.11
			c-2.55-0.34-5.08-0.73-7.62-1.0701c8.25,0.28,16.5-0.0399,24.75,0.17C426.69,1147.28,426.71,1143.2,426.71,1139.12z"/>
		<path fill="#CCC6C6" stroke="#CCC6C6" stroke-width="0.0938" d="M726.75,1139.1c13.1-0.45,26.22-0.14,39.33-0.23
			c25.25,0.08,50.51-0.16,75.76,0.13c-0.04,4.09-0.05,8.1899-0.02,12.3c28.76,0.0499,57.53,0.1,86.29-0.05
			c-2.41,0.38-4.82,0.72-7.22,1.0699c-10.63-0.7699-21.29-0.21-31.93-0.38c-53.7,0.0801-107.4,0.3401-161.11,0.1901
			C729.14,1147.77,728.93,1143.12,726.75,1139.1z"/>
		<path fill="#CCC6C6" stroke="#CCC6C6" stroke-width="0.0938" d="M1033.89,1138.87c44.33,0,88.66,0.02,132.99-0.01
			c-0.03,4.42-0.04,8.85-0.01,13.28c-28.8,0.13-57.59-0.25-86.38,0.1799c-15.5699-1.3999-31.05-3.5499-46.61-4.95
			C1033.87,1144.53,1033.88,1141.6899,1033.89,1138.87z"/>
		<path fill="#CCC6C6" stroke="#CCC6C6" stroke-width="0.0938" d="M1333.6899,1138.9399c42.8601-0.1699,85.7301,0,128.6001-0.09
			c0,4.3201,0.0299,8.64,0.1,12.9601c-12.76,0.73-25.5601,0.1499-38.33,0.34c-30.16-0.0601-60.3301,0.1-90.4901-0.0801
			C1333.5601,1147.6899,1333.6,1143.3101,1333.6899,1138.9399z"/>
		<path fill="#CCC6C6" stroke="#CCC6C6" stroke-width="0.0938" d="M1654.3,1138.9c44.34-0.0701,88.6699,0.01,133-0.05
			c0,4.4301,0.01,8.87,0.01,13.3101c-9.9301,0-19.8501-0.2001-29.76,0.14c-34.3101-2.79-68.66-6.8501-103.14-5.4301
			C1654.34,1144.2,1654.3,1141.55,1654.3,1138.9z"/>
	</g>
	<g id="_x23_cdc5c5ff">
		<path fill="#CDC5C5" stroke="#CDC5C5" stroke-width="0.0938" d="M105.59,674.41c43.02-0.06,86.05,0.2401,129.08-0.15
			c0,4.42-0.01,8.85,0,13.27c-43.03-0.19-86.06,0.0699-129.09-0.13C105.58,683.07,105.59,678.74,105.59,674.41z"/>
		<path fill="#CDC5C5" stroke="#CDC5C5" stroke-width="0.0938" d="M712.76,674.39c43.02,0,86.05,0.21,129.07-0.1
			c-0.01,4.4,0.02,8.81,0.03,13.23c-43.03-0.12-86.07,0-129.1-0.07C712.75,683.09,712.76,678.74,712.76,674.39z"/>
		<path fill="#CDC5C5" stroke="#CDC5C5" stroke-width="0.0938" d="M1033.9301,674.27c44.2999,0.37,88.62,0.07,132.9299,0.15
			c-0.02,4.37,0,8.75,0.02,13.13c-44.3101-0.24-88.61,0.07-132.92-0.16C1033.9301,683.02,1033.8199,678.64,1033.9301,674.27z"/>
		<path fill="#CDC5C5" stroke="#CDC5C5" stroke-width="0.0938" d="M1333.1801,674.4c43.0399-0.03,86.08,0.24,129.11-0.13
			c0.0399,4.38,0.0299,8.76,0,13.15c-43.04,0.15-86.0801-0.05-129.11,0.1C1333.1899,683.15,1333.1899,678.77,1333.1801,674.4z"/>
		<path fill="#CDC5C5" stroke="#CDC5C5" stroke-width="0.0938" d="M1654.37,674.3c44.3,0.28,88.62,0.11,132.9301,0.09
			c0,4.34,0.01,8.68,0,13.03c-44.3301,0.15-88.66-0.05-132.99,0.1C1654.3,683.11,1654.34,678.71,1654.37,674.3z"/>
	</g>
	<g id="_x23_fffeffff">
		<path fill="#FFFEFF" stroke="#FFFEFF" stroke-width="0.0938" d="M324.07,700.06c1.36-1.35,3.4-0.83,5.12-0.97
			c-0.58,10.08-0.49,20.19-0.23,30.29c-2.53-0.01-5.06-0.01-7.58,0c0.26-7.21,0.37-14.42,0.1-21.63c-1.53,0.6-3.05,1.21-4.56,1.85
			c-0.42-0.69-1.24-2.06-1.65-2.74C318.23,704.63,321.11,702.3,324.07,700.06z"/>
		<path fill="#FFFEFF" stroke="#FFFEFF" stroke-width="0.0938" d="M1757.55,1152.3c9.9099-0.3401,19.83-0.14,29.76-0.14
			c-0.03,1.1599-0.03,2.34-0.02,3.5299C1777.37,1154.5601,1767.4,1153.92,1757.55,1152.3z"/>
	</g>
	<g id="_x23_fefefdff">
		<path fill="#FEFEFD" stroke="#FEFEFD" stroke-width="0.0938" d="M927.98,699.33c5.3-0.62,11.32-1.5,15.99,1.79
			c3.9301,2.9,4.03,8.78,1.89,12.81c-2.44,4.51-7.1,7.03-11.27,9.68c4.99,0.01,9.97-0.26,14.96-0.4c-0.17,2.05-0.33,4.1-0.48,6.16
			c-7.33-0.01-14.67-0.03-22,0.01c0.18-1.93,0.38-3.83,0.58-5.73c4.19-2.63,8.7599-5.32,11.14-9.84c1.41-2.54,1.52-6.41-1.16-8.15
			c-3.08-1.7599-6.75-1.08-10.1-0.95C927.66,702.9,927.82,701.12,927.98,699.33z"/>
	</g>
	<g id="_x23_fefeffff">
		<path fill="#FEFEFF" stroke="#FEFEFF" stroke-width="0.0938" d="M1551.62,699.41c4.78-0.69,9.85-1.3,14.52,0.38
			c3.35,1.16,5.45,4.83,4.6799,8.33c-0.37,3.37-3.49,5.2-5.96,7.01c2.7001,1.03,5.55,2.38,6.97,5.09
			c1.8201,3.9,1.5,8.94-1.4299,12.2401c-5.02,6.09-13.27,7.97-20.79,8.35c-0.16-1.61-0.3099-3.21-0.4299-4.79
			c5.3199-0.62,11.4099-1.42,14.98-5.9c2.2799-2.56,1.6699-7.25-1.4601-8.83c-3.0699-1.82-6.76-1.7599-10.1799-2.05
			c0.29-1.54,0.62-3.06,0.97-4.58c3.05-0.11,6.28-0.5099,8.8-2.43c2.1-1.32,1.98-4.43,0.76-6.29c-3.52-2.28-7.89-1.39-11.8201-1.34
			C1551.34,702.86,1551.48,701.14,1551.62,699.41z"/>
	</g>
	<g id="_x23_ccc5c6ff">
		<path fill="#CCC5C6" stroke="#CCC5C6" stroke-width="0.0938" d="M426.7,840.28c44.34,0.15,88.68,0.03,133.03,0.06
			c-0.12,10.58,0.36,21.15,0.09,31.73c-0.35,11.38,0.47,22.77-0.17,34.15c-0.26-6.54-0.29-13.08-0.1801-19.6299
			c-44.2599-0.03-88.52-0.09-132.78,0.04c0-4.35,0.01-8.7,0.01-13.04c44.28-0.16,88.56,0.09,132.83-0.13
			c-0.17-6.66-0.1801-13.32,0.06-19.98c-44.29-0.29-88.6-0.07-132.89-0.1C426.69,849.01,426.69,844.64,426.7,840.28z"/>
		<path fill="#CCC5C6" stroke="#CCC5C6" stroke-width="0.0938" d="M105.6,1139.09c43.01-0.5,86.04-0.0699,129.06-0.2
			c-0.01,1.53,0,3.11,0,4.67c-43.06,1-86.06,3.3899-129.09,4.99C105.59,1145.39,105.6,1142.23,105.6,1139.09z"/>
	</g>
	<g id="_x23_a05343ff">
		<path fill="#A05343" stroke="#A05343" stroke-width="0.0938" d="M629.03,1043.11c2.81-2.9399,5.47-7.01,9.9399-7.28
			c6.9301,1.5,11.16,7.89,14.8701,13.41c9.3799,15.34,20.3199,29.62,30.5,44.42c9.4,13.0599,18.94,26.02,28.46,39
			c1.22,1.62,2.33,3.38,3.85,4.7799c3.36,0.5801,6.7599,0.92,10.1,1.66c2.18,4.02,2.39,8.67,1.1,13.03
			c-0.09,0.49-0.28,1.47-0.37,1.96c4.69,6.4401,9.56,12.76,14.19,19.25c18.03,25.02,34.52,51.27,54.63,74.6901
			c7.22,0.13,14.39-1.3201,21.59-1.87c13.07-1.4401,26.26-2.41,39.41-1.4401c1.55,3.98,3.48,8.6901,1.05,12.76
			c-1.19,2.49-3.68,3.9501-6.27,4.5801c-12.49,3.61-25.76,1.6499-38.37,4.62c10.8-3.4601,21.92-5.91,33-8.3101
			c3.65-1.12,4.1-5.42,4.31-8.63c-3.85-0.39-7.39,1.47-11.12,2.02c-6.64,0.9399-13.15,2.5699-19.79,3.52
			c-4.52,0.6699-9.09,1.15-13.5,2.36c-5.8,1.5499-11.45,4.03-17.53,4.15c-5.34,0.1-10.69,0.23-16.01-0.2001
			c-6.21-0.8199-12.07-3.2899-17.67-5.99c0.1-1.3099,0.19-2.64,0.3199-3.9199c6.15,0.5299,12.3-0.3101,18.35-1.4501
			c-10.02-16.4399-21.36-32.04-32.49-47.73c-7.07-9.54-13.6-19.49-21.17-28.64c-1.25-1.51-2.52-2.98-3.78-4.45
			c-1.08,1.4099-2.14,2.83-3.17,4.2899c-5.3,7.5601-9.22,15.9701-14.34,23.65c-1.3-0.34-2.6-0.66-3.89-0.96
			c-1.53-2.36-3.24-4.65-4.32-7.25c-0.93-2.37,0.26-5.37-1.59-7.33c1.46-2.01,2.86-4.05,4.24-6.1201
			c4.33-5.9399,8.02-12.36,11.19-18.98c1.81-3.24-0.91-6.27-2.53-8.8999c-15.61-24.2201-32.73-47.42-49.23-71.03
			c-0.11,2.15-0.14,4.3099,0.11,6.48c-2.45-9.33-8.95-17.84-7.64-27.91c1.46-6.66-5.67-13.75-12.26-11.0499
			c-12.26,4.45-25.48,3.6499-38.26,5.0599c-23.32,1.87-46.59,4.41-69.92,6.2001c-8.18,0.58-16.41,0.7-24.53,1.9099
			c1.8,3.2001,3.2,6.61,4.06,10.2001c2.47,2.12,4.85,4.4299,6.43,7.33c19.73,32.14,39.84,64.05,60.29,95.74
			c5.05,8.24,8.2,17.5,13.47,25.62c10.33,16.53,21.39,32.58,31.96,48.9501c5.95,10,12.57,19.59,18.41,29.6599
			c1.46,2.17,2.65,5.4301,5.85,5.23c21.11,1.7101,42.08-2.21,63.07-3.71c2.58,0.03,5.43-0.63,7.84,0.5
			c2.74,2.99,3.23,7.29,5.05,10.84c0.59,0.0701,1.79,0.2101,2.39,0.28c-2.89,1.83-5.33,4.36-8.42,5.87
			c-8.32,0.72-16.6,2.01-24.97,2.04c-10.88,0.47-22.02-0.27-32.61,2.7c-1.33,1.6,0.61,3.25,1.28,4.72
			c17.98,26.55,33.42,54.79,52.74,80.4301c40.23-10.01,80.01-21.75,119.77-33.47c4.91-1.36,9.61-3.34,14.25-5.41
			c-11.49-17.46-23.42-34.62-35.65-51.5599c-5.16-6.89-9.97-14.05-15.49-20.65c-5.54,1.02-11.08,2.09-16.63,3.03
			c4-1.67,8.05-3.3101,12.34-4.1001c8.8-1.6599,17.29-5.3999,26.42-4.58c-0.63,0.3-1.89,0.9-2.52,1.2
			c15.51,22.9301,31.85,45.29,48.06,67.7301c4.68,6.37,10.18,12.3199,13.34,19.6599c1.4,3.37,2.21,7.9601-0.77,10.75
			c-2.86,2.27-6.77,3.36-10.38,2.88c-3.29-1.51-4.89-4.98-6.98-7.72c-21.56,5.36-42.63,12.46-64.08,18.24
			c-9.68,2.49-18.94,6.4401-28.76,8.42c-6.32,2.1499-12.81,3.7799-19.11,5.98c-6.85,2.23-14.44,2.41-20.7,6.21
			c-3.57,1.96-1.28,6.74-3.2,9.73c-2.34,3.51-6.97,5.27-11.08,4.52c-2.64-1.1699-4.42-3.59-6.18-5.76
			c-5.63-7.58-9.67-16.1699-14.75-24.11c-18.2-28.79-34.77-58.71-55.61-85.74c-9.86,0.13-19.69,0.98-29.53,1.41
			c-2.6201-4.74-7.05-8.0701-11.03-11.6c-11.36-9.6001-25.98-14.4901-40.64-15.88c12.04-2.55,24.05-5.25,36.04-8.0601
			c-13.96-15.91-27.51-32.4299-37.43-51.22c-13.42,21.04-24.57,43.4299-34.76,66.2c-8.12,3.92-15.48,9.3301-21.63,15.9301
			c-1.62,1.66-3.21,3.35-4.71,5.14c-2.03-10.3501,5.41-18.6901,9.54-27.39c13.58-27.74,28.34-54.91,41.51-82.85
			c4.11-7.8501,7.51-16.04,11.53-23.9301c-9.32-18.5-20.95-35.73-32.55-52.85c-2.46-3.64-4.46-7.8301-8.4-10.12
			c0,0.8099,0,2.41,0,3.21c-0.1-0.36-0.31-1.09-0.42-1.45c-1.22-3.79-1.62-7.8401-3.42-11.42c-1.51-3.04-3.34-5.92-5.25-8.71
			c-3-4.35-6.24-8.53-9.08-12.98c-2.46-4.4601-5.88-8.4801-7.33-13.41c-0.83-2.37,0.28-4.76,1.86-6.48c1.77-1.53,3.59-3,5.31-4.5801
			c3.08,0.25,5.41,2.25,7.47,4.39c2.14,2.2001,5.26,2.85,8.24,2.75c6.66-0.1899,13.25-1.3099,19.83-2.33
			c11.63-1.41,23.34-2.08,35-3.28C582.87,1047.55,605.91,1044.89,629.03,1043.11 M548.09,1209.03c-1.63,2.48,1.1,4.6,2.36,6.5399
			c8.05,10.9701,15.38,22.4901,23.8,33.1901c4.86,6.45,11.12,11.78,15.27,18.76c4.42,5.7,11.86,7.5499,16.88,12.5499
			c-4.27,0.3301-8.4901,1.2001-12.65,2.2001c1.86,1.15,4.12,1.04,6.24,0.95c3.74-0.26,7.55-0.51,11.09-1.87
			c0.89,0.6801,1.66,1.51,2.48,2.3201c0.86-0.2101,1.72-0.4,2.59-0.5801c-15.2401-26.2-30.4301-52.4299-45.59-78.6699
			c-3.49-6-6.6-12.24-10.6-17.92C555.83,1193.91,551.76,1201.38,548.09,1209.03 M676.05,1294.66c4.64,0.0399,9.29-0.14,13.91-0.6901
			c5.74-0.6899,11.61-0.27,17.27-1.6699c-0.31-0.1801-0.95-0.55-1.26-0.7301C695.88,1290.09,685.87,1292.6801,676.05,1294.66z"/>
	</g>
	<g id="_x23_c2272dff">
		<path fill="#C2272D" stroke="#C2272D" stroke-width="0.0938" d="M594.94,1049.36c12.78-1.41,26-0.61,38.26-5.0599
			c6.59-2.7001,13.72,4.3899,12.26,11.0499c-1.31,10.0701,5.19,18.5801,7.64,27.91c7.53,31.41,17.81,62.22,31.72,91.39
			c1.15,2.58,2.43,5.16,4.5,7.16c1.85,1.96,0.66,4.96,1.59,7.33c1.08,2.6,2.79,4.89,4.32,7.25c1.29,0.2999,2.59,0.62,3.89,0.96
			c2.53,9.7001,9.04,17.65,15.41,25.14c8.68,9.3201,17.36,19.16,28.87,25.0701c3.83,2.0599,7.98,3.58,12.3199,4.12
			c-0.1299,1.2799-0.22,2.61-0.3199,3.9199c5.6,2.7001,11.46,5.17,17.67,5.99c5.32,0.4301,10.67,0.3,16.01,0.2001
			c6.08-0.12,11.73-2.6001,17.53-4.15c4.41-1.21,8.98-1.6901,13.5-2.36c6.64-0.9501,13.15-2.5801,19.79-3.52
			c3.73-0.55,7.27-2.41,11.12-2.02c-0.21,3.21-0.66,7.51-4.31,8.63c-11.08,2.4-22.2,4.85-33,8.3101c-0.34,0.11-1.03,0.33-1.37,0.45
			c-9.13-0.8199-17.6201,2.92-26.42,4.58c-4.29,0.79-8.34,2.4301-12.34,4.1001c-18.02,4.3899-36.26,7.86-54.27,12.2999
			c-0.6-0.0699-1.8-0.21-2.39-0.28c-1.82-3.5499-2.31-7.85-5.05-10.84c-2.41-1.13-5.26-0.47-7.84-0.5
			c-20.9901,1.5-41.96,5.42-63.07,3.71c-3.2,0.2001-4.39-3.0599-5.85-5.23c-5.84-10.0699-12.46-19.6599-18.41-29.6599
			c-10.57-16.3701-21.63-32.42-31.96-48.9501c-5.27-8.12-8.42-17.38-13.47-25.62c-20.45-31.6899-40.56-63.6-60.29-95.74
			c-1.58-2.9-3.96-5.21-6.43-7.33c-0.86-3.5901-2.26-7-4.06-10.2001c8.12-1.21,16.35-1.33,24.53-1.9099
			C548.35,1053.77,571.62,1051.23,594.94,1049.36z"/>
		<path fill="#C2272D" stroke="#C2272D" stroke-width="0.0938" d="M507.56,1103.9c3.94,2.2899,5.94,6.48,8.4,10.12
			c11.6,17.12,23.23,34.35,32.55,52.85c-4.02,7.89-7.42,16.08-11.53,23.9301c-3.6-7.6901-7.05-15.4501-10.2-23.3301
			c-2.07-5.0599-4.02-10.1599-5.83-15.2999c-1.56-4.42-3.05-8.8501-4.34-13.3401c-1.79-6.6899-3.74-13.33-5.71-19.96
			c-1.14-3.91-2.29-7.8199-3.34-11.76C507.56,1106.3101,507.56,1104.71,507.56,1103.9z"/>
		<path fill="#C2272D" stroke="#C2272D" stroke-width="0.0938" d="M548.09,1209.03c3.67-7.65,7.74-15.12,11.87-22.53
			c4,5.6801,7.11,11.92,10.6,17.92c15.16,26.24,30.35,52.47,45.59,78.6699c-0.87,0.1801-1.73,0.37-2.59,0.5801
			c-0.82-0.8101-1.59-1.64-2.48-2.3201c-1.53-0.5499-3.09-0.98-4.68-1.28c-5.02-5-12.46-6.85-16.88-12.5499
			c-4.15-6.98-10.41-12.3101-15.27-18.76c-8.42-10.7-15.75-22.22-23.8-33.1901C549.19,1213.63,546.46,1211.51,548.09,1209.03z"/>
		<path fill="#C2272D" stroke="#C2272D" stroke-width="0.0938" d="M1198.4399,1269.4301
			c7.8301-9.38,20.2101-15.0601,32.4901-13.5901c14.5399,1.53,26.9099,11.35,34.9299,23.13c6.37,9.3,10.35,20.1,12.3201,31.17
			c1.5,8.08,6.46,15.42,5.98,23.87c-0.17,3.98,0.76,7.87,1.4,11.79c-1.7101,0.24-3.3601,0.5299-5.04,0.7999
			c-1.98,8.62-2.03,17.5601-3.2001,26.3201c-1.6699,15.3999-3.0199,30.85-4.8899,46.23c-15.51,2.5399-30.9701,5.37-46.4401,8.12
			c-8.74-20.28-17.96-40.34-26.74-60.6c-0.72-1.53-1.41-3.12-2.67-4.26c-1.2999-1.5901-3.51-0.0701-5.11-0.0601
			c-0.38-0.36-1.15-1.0699-1.53-1.4199c-1.34,2.3899-2.72,4.7699-4.12,7.1399c4.15,3.8601,9.4601,7.26,11.1801,12.9801
			c1.47,5.6699-1.16,11.33-3.63,16.3199c-7.04,13.52-17.15,25.15-24.3199,38.6c-16.25-7.1-31.26-16.73-45.67-26.99
			c0.6-5.0699,4.37-8.72,6.73-12.99c5.46-9.48,9.84-19.61,16.3101-28.48c3.72-4.99,8.89-10.0601,15.5199-10.14
			c4.3201-0.3199,8.0901,2.04,11.8301,3.85c4.7-5.6699,8.87-11.8099,12.2-18.38c0.7001-7.25,0.04-14.59-1.14-21.76
			C1182.67,1303.0699,1186.39,1283.47,1198.4399,1269.4301 M1223.91,1262.61c9.2799,5.46,18.52,11.02,27.37,17.17
			c-5.35,8.25-7.54,18.7-15.1,25.4c-3.8301,3.6599-9.02,1-13.3301,0c-9.5699,14.5-17.99,29.7-26.5,44.83
			c27.14-4.76,54.28-9.6,81.42-14.35c1.9199-8.73-3.71-16.42-5.1901-24.7201c-1.76-10.0599-5.4199-19.83-11.2899-28.22
			C1253.09,1270.63,1239.09,1260.9,1223.91,1262.61 M1207.08,1270c-10.8199,9.05-15.99,23.23-17.01,36.98
			c-0.9099,8.48,1.1901,16.85,1.7001,25.28c6.65-10.85,13.02-21.92,19.1-33.09c-1.54-4.1801-6.5699-7.13-5.45-12.13
			c1.99-8.99,9.7699-15.04,13.2-23.38C1214.45,1265.11,1210.45,1267.12,1207.08,1270 M1215.34,1287.83c0.63,2.76,3.48,4.5,5.54,6.3
			c3.0699,2.22,7.64,4.9301,11.15,2.05c4.14-3.8401,5.65-9.52,8.15-14.42c-5.0801-3.51-10.13-7.4-16.2101-8.99
			C1220.21,1277.17,1216.62,1282.09,1215.34,1287.83z"/>
	</g>
	<g id="_x23_f8ffffff">
		<path fill="#F8FFFF" stroke="#F8FFFF" stroke-width="0.0938" d="M496.7,1052.47c9.35,0.26,18.75-0.59,28.07,0.42
			c-6.58,1.02-13.17,2.14-19.83,2.33C501.96,1055.3199,498.84,1054.67,496.7,1052.47z"/>
	</g>
	<g id="_x23_eedfa8ff">
		<path fill="#EEDFA8" stroke="#EEDFA8" stroke-width="0.0938" d="M234.66,1143.5601c55.81-1.38,111.92-0.53,167.24,7.6399
			c2.54,0.3401,5.07,0.7301,7.62,1.0701c38.86,6.6,77.99,11.72,117.26,15.2c3.15,7.88,6.6,15.64,10.2,23.3301
			c-13.17,27.9399-27.93,55.11-41.51,82.85c-4.13,8.7-11.57,17.0399-9.54,27.39c-9.73,12.85-15.77,28.74-15.47,44.99
			c0.01,8.75,1.33,17.58,4.39,25.8099c9.14,24.76,32.49,43.87,58.86,46.8c15.93,1.83,32.58-1.14,46.37-9.5
			c11.89-6.9,21.52-17.33,28.02-29.39c12.6801-24.09,10.44-55.3199-5.95-77.14c-0.34-0.0699-1-0.2-1.34-0.27
			c-0.18-0.45-0.54-1.35-0.72-1.8099c9.84-0.4301,19.67-1.28,29.53-1.41c20.84,27.03,37.41,56.95,55.61,85.74
			c5.08,7.9401,9.12,16.53,14.75,24.11c1.76,2.17,3.54,4.5901,6.18,5.76c4.11,0.75,8.7401-1.01,11.08-4.52
			c1.92-2.99-0.37-7.77,3.2-9.73c6.26-3.7999,13.85-3.98,20.7-6.21c6.3-2.2001,12.79-3.8301,19.11-5.98
			c9.82-1.98,19.08-5.9301,28.76-8.42c21.45-5.78,42.52-12.88,64.08-18.24c2.09,2.74,3.69,6.21,6.98,7.72
			c3.61,0.48,7.52-0.61,10.38-2.88c2.98-2.7899,2.17-7.38,0.77-10.75c-3.16-7.34-8.66-13.2899-13.34-19.6599
			c-16.21-22.4401-32.55-44.8-48.06-67.7301c0.63-0.2999,1.89-0.8999,2.52-1.2c0.34-0.12,1.03-0.34,1.37-0.45
			c12.61-2.9701,25.88-1.01,38.37-4.62c2.59-0.63,5.08-2.0901,6.27-4.5801c2.4301-4.0699,0.5-8.78-1.05-12.76
			c-13.15-0.97-26.34,0-39.41,1.4401c-7.2,0.5499-14.37,2-21.59,1.87c-20.11-23.42-36.6-49.67-54.63-74.6901
			c48.83-2.73,97.65-6.89,145.94-14.85c11.11-1.95,22.34-3.39,33.28-6.17c2.4-0.35,4.81-0.6899,7.22-1.0699
			c34.75-7.13,70.56-7.1,105.77-3.88c15.5599,1.4,31.04,3.55,46.61,4.95c28.63,3.8601,57.46,6.67,86.37,6.9301
			c55.47-0.03,110.91,1.8,166.3201,4.3199c39.62,1.77,79.1899,4.4801,118.7999,6.5801c50.72,1.33,100.4301-10.22,150.3-17.62
			c-15.4-1.4301-30.9-0.38-46.3401-0.6801c-30.6899-0.11-61.3799,0.1801-92.0599-0.13c14.01-0.83,28.0599-0.1799,42.09-0.36
			c32.64-0.09,65.29,0.1801,97.9401-0.15c4.34,0.13,8.6899-0.12,13-0.76c12.4399-1.75,24.96-2.7799,37.5-3.58
			c34.48-1.42,68.83,2.64,103.14,5.4301c9.85,1.62,19.8199,2.26,29.74,3.3899c44.0299,4.52,88.5299,8.25,132.71,3.53v258.12
			c-57.09-1.5399-114.16-3.9199-171.22-6.15c-1.88-3.6499-4.12-7.11-6.63-10.33c-2.48-3.15-6.39-4.49-9.8301-6.25
			c-4.7899-2.25-9.1399-5.47-14.2999-6.83c-9.25-2.63-19.38-2.4601-27.91-7.3301c8.17-6.1799,14.21-14.9299,23.29-19.9099
			c7.7999-4.89,16.0699-8.9401,24-13.61c-0.09-1.87-0.15-3.7201-0.1901-5.5601c-7.3199,1.65-14.98,1.9401-21.97,4.86
			c-5.12,1.84-9.62,4.9501-14.46,7.37c-4.85,2.4301-10.48,2.4301-15.3401,4.8101c-3.49,1.6599-6.4099,4.26-9.2799,6.7899
			c-4.4-6.9299-9.11-13.76-12.12-21.4299c-2.13-5.3301-3.73-10.86-5.88-16.17c-1.4701,0.0701-2.91,0.15-4.3301,0.25
			c0.01,7.4401,2.38,14.66,1.9301,22.13c-0.45,7.64,0.1899,15.27,1.76,22.76c-7.47-0.97-15-0.45-22.5-0.9
			c-10.63-0.6799-20.84,2.85-31.09,5.1c-5.04,1.15-10.3401,0.9901-15.25,2.7101c-1.78,0.47-2.77,2.12-3.87,3.4399
			c4.1699,3.99,10.0699,2.27,15.1899,2.0801c7.09-0.62,13.85,1.9299,20.74,3.1c11.72,1.83,22.73,9.21,34.96,6.36
			c-2.1499,4.33-3.98,8.79-5.9399,13.21c-51.02-0.52-102.24,1.27-152.6801,9.4301c-94.47,15.6699-190.3199,23.1699-286.08,21.98
			c-76.9-1.17-153.85-7.96-229.37-22.8c-19.6-4.0499-39.59-6.25-59.6-6.3099c-48.98-0.9-97.25,8.87-145.95,12.36
			c-24.63,2.03-49.36,1.29-74.04,1.8c-79.74,1.0499-159.39,5.36-238.97,10.26c-47.17,2.3899-93.79-6.7001-140.06-14.53
			c-26.79-4.36-53.78-8.28-80.97-8.64c-72.68-0.1901-144.39,15.62-217.1,14.77c-8.32,0.0699-16.65-1.2101-24.94-0.53v-273.39
			c35.2-1.03,70.38-2.36,105.57-3.6899C148.6,1146.95,191.6,1144.5601,234.66,1143.5601 M1198.4399,1269.4301
			c-12.0499,14.0399-15.7699,33.6399-13.61,51.6499c1.1801,7.17,1.8401,14.51,1.14,21.76c-3.33,6.5701-7.5,12.7101-12.2,18.38
			c-3.74-1.8099-7.51-4.1699-11.8301-3.85c-6.6299,0.08-11.7999,5.15-15.5199,10.14c-6.4701,8.87-10.8501,19-16.3101,28.48
			c-2.36,4.27-6.13,7.92-6.73,12.99c14.41,10.26,29.42,19.89,45.67,26.99c7.1699-13.45,17.2799-25.08,24.3199-38.6
			c2.47-4.99,5.1-10.65,3.63-16.3199c-1.72-5.7201-7.03-9.12-11.1801-12.9801c1.4-2.37,2.78-4.75,4.12-7.1399
			c0.38,0.35,1.15,1.0599,1.53,1.4199c1.6-0.01,3.8101-1.53,5.11,0.0601c1.26,1.14,1.9501,2.73,2.67,4.26
			c8.78,20.26,18,40.3199,26.74,60.6c15.47-2.75,30.9301-5.5801,46.4401-8.12c1.87-15.38,3.22-30.8301,4.8899-46.23
			c1.17-8.76,1.2201-17.7001,3.2001-26.3201c1.6799-0.27,3.33-0.5599,5.04-0.7999c-0.64-3.92-1.5701-7.8101-1.4-11.79
			c0.48-8.45-4.48-15.79-5.98-23.87c-1.9701-11.0701-5.9501-21.87-12.3201-31.17c-8.02-11.78-20.39-21.6-34.9299-23.13
			C1218.65,1254.37,1206.27,1260.05,1198.4399,1269.4301z"/>
		<path fill="#EEDFA8" stroke="#EEDFA8" stroke-width="0.0938" d="M699.12,1197.35c5.12-7.6799,9.04-16.09,14.34-23.65
			c2.31,0.05,4.63,0.0901,6.95,0.16c7.57,9.15,14.1,19.1,21.17,28.64c11.13,15.6899,22.47,31.29,32.49,47.73
			c-6.05,1.14-12.2,1.98-18.35,1.4501c-4.34-0.54-8.49-2.0601-12.3199-4.12c-11.51-5.91-20.19-15.75-28.87-25.0701
			C708.16,1215,701.65,1207.05,699.12,1197.35z"/>
		<path fill="#EEDFA8" stroke="#EEDFA8" stroke-width="0.0938" d="M512.27,1279.97c10.19-22.77,21.34-45.1599,34.76-66.2
			c9.92,18.79,23.47,35.3099,37.43,51.22c-11.9901,2.8101-24,5.51-36.04,8.0601c-1.32,0.01-2.63,0.0199-3.93,0.0599
			C533.41,1272.9301,522.31,1275.27,512.27,1279.97z"/>
		<path fill="#EEDFA8" stroke="#EEDFA8" stroke-width="0.0938" d="M1223.91,1262.61c15.1799-1.71,29.1799,8.02,37.38,20.11
			c5.87,8.39,9.5299,18.16,11.2899,28.22c1.4801,8.3,7.11,15.9901,5.1901,24.7201c-27.14,4.75-54.28,9.59-81.42,14.35
			c8.51-15.13,16.9301-30.33,26.5-44.83c4.3101,1,9.5,3.6599,13.3301,0c7.5599-6.7001,9.75-17.15,15.1-25.4
			C1242.4301,1273.63,1233.1899,1268.0699,1223.91,1262.61z"/>
		<path fill="#EEDFA8" stroke="#EEDFA8" stroke-width="0.0938" d="M1207.08,1270c3.37-2.88,7.37-4.89,11.54-6.34
			c-3.4301,8.34-11.21,14.39-13.2,23.38c-1.12,5,3.9099,7.95,5.45,12.13c-6.08,11.1699-12.45,22.24-19.1,33.09
			c-0.51-8.4301-2.61-16.8-1.7001-25.28C1191.09,1293.23,1196.26,1279.05,1207.08,1270z"/>
		<path fill="#EEDFA8" stroke="#EEDFA8" stroke-width="0.0938" d="M773.58,1275.8101c5.55-0.9401,11.09-2.01,16.63-3.03
			c5.52,6.6,10.33,13.76,15.49,20.65c12.23,16.9399,24.16,34.1,35.65,51.5599c-4.64,2.0701-9.34,4.05-14.25,5.41
			c-39.7599,11.72-79.54,23.46-119.77,33.47c-19.32-25.64-34.76-53.88-52.74-80.4301c-0.67-1.47-2.61-3.12-1.28-4.72
			c10.59-2.97,21.73-2.23,32.61-2.7c8.37-0.03,16.65-1.3201,24.97-2.04c3.09-1.51,5.53-4.04,8.42-5.87
			C737.32,1283.67,755.56,1280.2,773.58,1275.8101z"/>
		<path fill="#EEDFA8" stroke="#EEDFA8" stroke-width="0.0938" d="M1215.34,1287.83c1.28-5.74,4.87-10.6599,8.63-15.0599
			c6.0801,1.59,11.13,5.48,16.2101,8.99c-2.5,4.9-4.01,10.58-8.15,14.42c-3.51,2.88-8.0801,0.1699-11.15-2.05
			C1218.8199,1292.33,1215.97,1290.59,1215.34,1287.83z"/>
	</g>
	<g id="_x23_ebe2a7ff">
		<path fill="#EBE2A7" stroke="#EBE2A7" stroke-width="0.0938" d="M684.82,1174.65c3.1-0.11,6.2-0.1801,9.31-0.16l-0.57,1.2
			c-1.38,2.0701-2.78,4.1101-4.24,6.1201C687.25,1179.8101,685.97,1177.23,684.82,1174.65z"/>
	</g>
	<g id="_x23_c55444ff">
		<path fill="#C55444" stroke="#C55444" stroke-width="0.0938" d="M512.27,1279.97c10.04-4.7,21.14-7.0399,32.22-6.86
			c-0.56,9.3-0.13,18.61-0.02,27.92c-4.95,0.48-9.7599,2.3099-13.59,5.5c-12.35-6.6-26.33-9.7101-40.24-10.63
			C496.79,1289.3,504.15,1283.89,512.27,1279.97z"/>
	</g>
	<g id="_x23_f3e471ff">
		<path fill="#F3E471" stroke="#F3E471" stroke-width="0.0938" d="M544.49,1273.11c1.3-0.04,2.61-0.0499,3.93-0.0599
			c14.66,1.3899,29.28,6.2799,40.64,15.88c3.98,3.5299,8.41,6.86,11.03,11.6c0.18,0.46,0.54,1.36,0.72,1.8099
			c-13.19-1.48-26.51,0.99-38.87,5.5701c-4.42-4.8301-11.01-7.0901-17.47-6.88C544.36,1291.72,543.93,1282.41,544.49,1273.11z"/>
	</g>
	<g id="_x23_f2ecb6ff">
		<path fill="#F2ECB6" stroke="#F2ECB6" stroke-width="0.0938" d="M593.75,1282.27c4.16-1,8.38-1.87,12.65-2.2001
			c1.59,0.3,3.15,0.7301,4.68,1.28c-3.54,1.36-7.35,1.61-11.09,1.87C597.87,1283.3101,595.61,1283.42,593.75,1282.27z"/>
	</g>
	<g id="_x23_c7212dff">
		<path fill="#C7212D" stroke="#C7212D" stroke-width="0.0938" d="M676.05,1294.66c9.82-1.98,19.83-4.5701,29.92-3.0901
			c0.3101,0.1801,0.95,0.55,1.26,0.7301c-5.66,1.3999-11.53,0.98-17.27,1.6699C685.34,1294.52,680.69,1294.7,676.05,1294.66z"/>
	</g>
	<g id="_x23_eb9041ff">
		<path fill="#EB9041" stroke="#EB9041" stroke-width="0.0938" d="M485.93,1301.04c1.5-1.79,3.09-3.48,4.71-5.14
			c13.91,0.9199,27.89,4.03,40.24,10.63c-5.39,4.77-6.75,12.88-3.39,19.21c-14.75,6.3201-28.23,15.64-39.26,27.3101
			c-4.92,5.8899-10.21,11.71-13.38,18.7899c-3.06-8.23-4.38-17.0599-4.39-25.8099C470.16,1329.78,476.2,1313.89,485.93,1301.04z"/>
	</g>
	<g id="_x23_93268fff">
		<path fill="#93268F" stroke="#93268F" stroke-width="0.0938" d="M530.88,1306.53c3.83-3.1901,8.64-5.02,13.59-5.5
			c6.46-0.2101,13.05,2.0499,17.47,6.88c4.11,4.74,5.2,11.9299,1.97,17.45c-4.0099,7.12-12.52,10.5601-20.45,9.75
			c-6.45-0.42-12.42-4.02-15.97-9.37C524.13,1319.41,525.49,1311.3,530.88,1306.53z"/>
	</g>
	<g id="_x23_46a446ff">
		<path fill="#46A446" stroke="#46A446" stroke-width="0.0938" d="M561.94,1307.91c12.36-4.5801,25.68-7.05,38.87-5.5701
			c0.34,0.0701,1,0.2001,1.34,0.27c16.39,21.8201,18.63,53.05,5.95,77.14c-5.3-17.47-16.12-33.38-31.0099-44.04
			c-4.1801-3.62-9.1-6.1799-13.64-9.27l0.46-1.08C567.14,1319.84,566.05,1312.65,561.94,1307.91z"/>
	</g>
	<g id="_x23_71429eff">
		<path fill="#71429E" stroke="#71429E" stroke-width="0.0938" d="M543.46,1335.11c7.93,0.8101,16.44-2.63,20.45-9.75l-0.46,1.08
			c4.54,3.0901,9.46,5.65,13.64,9.27c14.89,10.66,25.71,26.5701,31.0099,44.04c-6.5,12.0601-16.13,22.49-28.02,29.39
			c-13.79,8.36-30.44,11.33-46.37,9.5C541.3,1391.52,544.19,1363.21,543.46,1335.11z"/>
	</g>
	<g id="_x23_4984caff">
		<path fill="#4984CA" stroke="#4984CA" stroke-width="0.0938" d="M488.23,1353.05c11.03-11.67,24.51-20.99,39.26-27.3101
			c3.55,5.35,9.52,8.95,15.97,9.37c0.73,28.1-2.16,56.41-9.75,83.53c-26.37-2.9301-49.72-22.04-58.86-46.8
			C478.02,1364.76,483.31,1358.9399,488.23,1353.05z"/>
	</g>
	<g id="_x23_f28d49ff">
		<path fill="#F28D49" stroke="#F28D49" stroke-width="0.0938" d="M1653.83,1327.85c1.42-0.1,2.86-0.1799,4.3301-0.25
			c2.15,5.3101,3.75,10.84,5.88,16.17c3.01,7.6699,7.72,14.5,12.12,21.4299c2.87-2.5299,5.7899-5.13,9.2799-6.7899
			c4.8601-2.38,10.4901-2.38,15.3401-4.8101c4.84-2.4199,9.34-5.53,14.46-7.37c6.99-2.9199,14.65-3.21,21.97-4.86
			c0.04,1.84,0.1001,3.6901,0.1901,5.5601c-7.9301,4.6699-16.2001,8.72-24,13.61c-9.0801,4.98-15.12,13.73-23.29,19.9099
			c8.53,4.87,18.66,4.7001,27.91,7.3301c5.16,1.36,9.51,4.58,14.2999,6.83c3.4401,1.76,7.3501,3.1,9.8301,6.25
			c2.51,3.22,4.75,6.6801,6.63,10.33c1.09,3.53,1.72,7.25,1.11,10.9601c-5.58-2.6801-8.3101-8.86-13.78-11.79
			c-8.54-5.53-18.97-8.0499-29.0699-6.71c-9.36,1.03-18.4701-1.85-26.87-5.7101c-1.9,3.51-3.63,7.1201-5.9401,10.39
			c-3.24,4.0701-6.9299,7.8-9.6799,12.25c-4.02,6.79-11.2001,11.0801-18.51,13.53c-8.27,1.72-16.65,2.89-25.04,3.79
			c-0.54-0.5-1.61-1.5-2.15-2c4.54-4.48,10.87-6.27,15.8301-10.17c6.35-4.6799,11.0699-11.1899,15.08-17.89
			c1.96-4.4199,3.79-8.88,5.9399-13.21c-12.23,2.85-23.24-4.53-34.96-6.36c-6.89-1.17-13.65-3.72-20.74-3.1
			c-5.12,0.1899-11.02,1.9099-15.1899-2.0801c1.1-1.3199,2.09-2.97,3.87-3.4399c4.9099-1.72,10.21-1.5601,15.25-2.7101
			c10.25-2.25,20.46-5.7799,31.09-5.1c7.5,0.4501,15.03-0.0699,22.5,0.9c-1.5701-7.49-2.21-15.12-1.76-22.76
			C1656.21,1342.51,1653.84,1335.29,1653.83,1327.85z"/>
	</g>
	<g id="_x23_eee0a9ff">
		<path fill="#EEE0A9" stroke="#EEE0A9" stroke-width="0.0938" d="M1680.17,1397.9399c8.3999,3.8601,17.51,6.7401,26.87,5.7101
			c10.1-1.34,20.5299,1.1799,29.0699,6.71c-20.63-0.54-41.25-1.6799-61.88-2.03
			C1676.54,1405.0601,1678.27,1401.45,1680.17,1397.9399z"/>
	</g>
	<g id="_x23_5ca0c5ff">
		<path fill="#5CA0C5" stroke="#5CA0C5" stroke-width="0.0938" d="M1497.08,1417.27c50.4401-8.16,101.66-9.9501,152.6801-9.4301
			c-4.01,6.7001-8.73,13.2101-15.08,17.89c-4.9601,3.9-11.29,5.6901-15.8301,10.17c0.54,0.5,1.61,1.5,2.15,2
			c8.39-0.9,16.77-2.0701,25.04-3.79c7.3099-2.45,14.49-6.74,18.51-13.53c2.75-4.45,6.4399-8.1799,9.6799-12.25
			c20.63,0.3501,41.25,1.49,61.88,2.03c5.47,2.9301,8.2001,9.11,13.78,11.79c0.61-3.7101-0.02-7.4301-1.11-10.9601
			c57.0599,2.2301,114.13,4.6101,171.22,6.15V1703H0v-277.37c8.29-0.6801,16.62,0.6,24.94,0.53
			c72.71,0.85,144.42-14.9601,217.1-14.77c27.19,0.36,54.18,4.28,80.97,8.64c46.27,7.83,92.89,16.9199,140.06,14.53
			c79.58-4.9,159.23-9.2101,238.97-10.26c24.68-0.51,49.41,0.23,74.04-1.8c48.7-3.49,96.97-13.26,145.95-12.36
			c20.0099,0.0599,40,2.26,59.6,6.3099c75.52,14.8401,152.47,21.63,229.37,22.8
			C1306.76,1440.4399,1402.61,1432.9399,1497.08,1417.27z"/>
	</g>
</g>
</svg>
