<!--?xml version="1.0" standalone="no"?-->
              <svg id="sw-js-blob-svg" viewBox="0 0 100 100" xmlns="http://www.w3.org/2000/svg" version="1.1">
                    <defs> 
                        <linearGradient id="sw-gradient" x1="0" x2="1" y1="1" y2="0">
                            <stop id="stop1" stop-color="rgba(248, 117, 55, 1)" offset="0%"></stop>
                            <stop id="stop2" stop-color="rgba(251, 168, 31, 0.15)" offset="100%"></stop>
                        </linearGradient>
                    </defs>
                <path fill="url(#sw-gradient)" d="M15.9,-31.8C16.3,-27.3,9.5,-14.4,12.4,-7.7C15.3,-1,28.1,-0.5,30.2,1.2C32.2,2.9,23.7,5.8,20.6,12.2C17.5,18.6,19.8,28.5,17.3,33.3C14.8,38.2,7.4,38,2.4,33.7C-2.5,29.5,-5,21.2,-5.3,15.1C-5.7,9.1,-3.9,5.1,-10.7,3C-17.5,0.8,-32.8,0.4,-39.7,-4C-46.5,-8.3,-44.9,-16.6,-39.4,-21.1C-34,-25.6,-24.8,-26.3,-17.6,-26.9C-10.4,-27.5,-5.2,-27.9,1.3,-30.1C7.7,-32.3,15.5,-36.2,15.9,-31.8Z" width="100%" height="100%" transform="translate(50 50)" stroke-width="0" style="transition: all 0.3s ease 0s;" stroke="url(#sw-gradient)"></path>
              </svg>